<svg width="379" height="139" viewBox="0 0 379 139" fill="none" xmlns="http://www.w3.org/2000/svg">
<g clip-path="url(#clip0_2_248)">
<rect width="379" height="139" rx="10" fill="url(#paint0_linear_2_248)"/>
<g clip-path="url(#clip1_2_248)">
<path d="M329.296 131.541C329.296 131.541 319.519 61.6721 271.19 61.6721C222.861 61.6721 216.447 127.364 216.334 131.541C216.334 131.541 212.37 155.058 230.735 155.191C249.099 155.323 265.482 155.234 286.621 155.058C318.462 154.794 331.2 146.682 329.296 131.541Z" fill="#1E9DF9"/>
<path d="M248.585 155.478C242.643 155.478 236.79 155.458 230.733 155.415C226.054 155.381 222.395 153.832 219.859 150.81C216.842 147.216 215.985 142.154 215.797 138.541C215.602 134.782 216.07 131.765 216.11 131.52C216.138 130.572 216.525 125.759 217.937 118.817C219.15 112.855 221.443 103.873 225.477 94.9481C229.896 85.1698 235.49 77.3919 242.102 71.8303C250.292 64.9412 260.079 61.448 271.19 61.448C282.268 61.448 292.231 65.139 300.803 72.4184C307.65 78.2338 313.627 86.339 318.568 96.5088C320.991 101.499 324.462 109.723 327.23 120.569C328.885 127.056 329.511 131.467 329.517 131.51C329.518 131.511 329.518 131.512 329.518 131.513C329.855 134.194 329.73 136.673 329.147 138.881C328.553 141.129 327.466 143.169 325.914 144.942C322.987 148.288 318.255 150.849 311.849 152.552C305.353 154.279 296.866 155.198 286.623 155.283C272.172 155.402 260.211 155.478 248.585 155.478ZM271.19 61.8963C260.187 61.8963 250.498 65.354 242.39 72.1733C235.83 77.6913 230.277 85.416 225.885 95.1326C221.869 104.02 219.585 112.967 218.376 118.907C216.963 125.854 216.582 130.645 216.558 131.547C216.557 131.558 216.556 131.568 216.555 131.578C216.549 131.609 216.044 134.672 216.245 138.528C216.43 142.07 217.267 147.027 220.203 150.523C222.651 153.439 226.195 154.934 230.736 154.966C248.64 155.095 264.784 155.015 286.619 154.834C296.825 154.749 305.275 153.836 311.734 152.118C318.052 150.439 322.71 147.925 325.577 144.647C327.083 142.926 328.138 140.947 328.714 138.766C329.282 136.614 329.403 134.193 329.073 131.57C329.057 131.454 328.43 127.081 326.793 120.669C325.27 114.703 322.536 105.7 318.16 96.6951C313.247 86.5839 307.308 78.5298 300.509 72.7563C292.021 65.5502 282.157 61.8963 271.19 61.8963Z" fill="#111111"/>
<path d="M291.252 35.8796C290.979 23.5484 282.407 16.6782 273.471 16.7663C263.363 16.8659 254.822 22.9468 253.767 35.5196C268.11 38.5439 281.22 39.6309 291.252 35.8796Z" fill="#1E9DF9"/>
<path d="M281.534 37.0006C275.588 37.0006 268 36.5604 260.558 36.1286C258.313 35.9984 255.992 35.8637 253.755 35.7434C253.695 35.7401 253.638 35.7125 253.598 35.6668C253.559 35.6211 253.539 35.5612 253.544 35.5008C254.045 29.5254 256.304 24.6139 260.076 21.2972C263.555 18.2385 268.186 16.5943 273.468 16.5422C278.104 16.4959 282.475 18.2594 285.768 21.5061C289.373 25.0607 291.347 30.0292 291.477 35.8746C291.479 35.9713 291.419 36.0584 291.328 36.0908C289.453 36.7583 285.945 37.0006 281.534 37.0006ZM254.011 35.3082C256.177 35.4254 258.416 35.5553 260.584 35.6811C273.353 36.4219 286.552 37.1877 291.024 35.7208C290.676 23.3943 282.061 16.9897 273.637 16.9897C273.582 16.9897 273.528 16.99 273.473 16.9905C268.299 17.0415 263.769 18.6472 260.372 21.6339C256.737 24.83 254.54 29.5546 254.011 35.3082Z" fill="#111111"/>
<path d="M277.875 53.5277V65.4804C277.875 65.4804 270.372 72.5137 262.87 65.4804V53.5277H277.875Z" fill="#FFAAC3"/>
<path d="M270.114 68.824C267.897 68.824 265.306 68.0716 262.717 65.644C262.672 65.6015 262.646 65.5424 262.646 65.4804V53.5277C262.646 53.4038 262.746 53.3035 262.87 53.3035H277.875C277.999 53.3035 278.099 53.4038 278.099 53.5277V65.4804C278.099 65.5424 278.073 65.6015 278.028 65.644C277.95 65.7172 276.083 67.4476 273.253 68.3319C272.347 68.6149 271.282 68.824 270.114 68.824ZM263.094 65.3828C264.751 66.9163 266.54 67.8724 268.412 68.2255C269.929 68.5116 271.507 68.405 273.104 67.9086C275.541 67.1507 277.285 65.7004 277.651 65.3802V53.7518H263.094V65.3828Z" fill="#111111"/>
<path d="M304.264 40.9476C304.264 35.7115 299.997 31.4668 294.734 31.4668C289.47 31.4668 285.203 35.7115 285.203 40.9476C285.203 46.1837 288.347 50.4284 293.61 50.4284C298.874 50.4284 304.264 46.1837 304.264 40.9476Z" fill="#FFAAC3"/>
<path d="M293.61 50.6526C288.528 50.6526 284.979 46.6618 284.979 40.9476C284.979 35.5963 289.355 31.2426 294.734 31.2426C300.112 31.2426 304.488 35.5962 304.488 40.9476C304.488 43.4875 303.269 45.9288 301.056 47.8219C298.954 49.6208 296.24 50.6526 293.61 50.6526ZM294.734 31.691C289.602 31.691 285.428 35.8434 285.428 40.9476C285.428 43.5094 286.201 45.8389 287.605 47.5072C289.089 49.2716 291.166 50.2043 293.61 50.2043C296.134 50.2043 298.742 49.2118 300.765 47.4813C302.877 45.6748 304.04 43.3544 304.04 40.9477C304.04 35.8435 299.865 31.691 294.734 31.691Z" fill="#111111"/>
<path d="M238.406 40.9476C238.406 35.7115 242.664 31.4668 247.918 31.4668C253.172 31.4668 257.429 35.7115 257.429 40.9476C257.429 46.1837 254.294 50.4284 249.041 50.4284C243.788 50.4284 238.406 46.1837 238.406 40.9476Z" fill="#FFAAC3"/>
<path d="M249.041 50.6526C246.417 50.6526 243.707 49.6208 241.608 47.8217C239.399 45.9285 238.182 43.4873 238.182 40.9476C238.182 35.5963 242.55 31.2426 247.918 31.2426C253.286 31.2426 257.653 35.5962 257.653 40.9476C257.653 46.6618 254.112 50.6526 249.041 50.6526ZM247.918 31.691C242.797 31.691 238.63 35.8434 238.63 40.9476C238.63 43.3543 239.791 45.6747 241.9 47.4814C243.919 49.2118 246.522 50.2043 249.041 50.2043C251.48 50.2043 253.552 49.2717 255.034 47.5075C256.434 45.8394 257.205 43.5098 257.205 40.9476C257.205 35.8435 253.039 31.691 247.918 31.691Z" fill="#111111"/>
<path d="M249.433 44.9834C249.415 44.9834 249.398 44.9815 249.38 44.9771C249.26 44.9483 249.185 44.8272 249.214 44.7069C250.051 41.2172 253.183 40.5934 253.215 40.5875C253.336 40.5649 253.453 40.645 253.476 40.7667C253.499 40.8883 253.419 41.0052 253.297 41.0281C253.18 41.0505 250.418 41.6114 249.65 44.8115C249.626 44.9143 249.534 44.9834 249.433 44.9834Z" fill="#111111"/>
<path d="M285.786 44.5916C285.738 44.5916 285.689 44.5762 285.648 44.5442C285.55 44.4681 285.533 44.3273 285.609 44.2296C285.627 44.2068 287.416 41.9257 290.116 39.6774C292.621 37.5927 296.447 35.1078 300.452 35.1078C300.576 35.1078 300.676 35.2081 300.676 35.332C300.676 35.4558 300.576 35.5561 300.452 35.5561C296.583 35.5561 292.856 37.9815 290.41 40.0163C287.745 42.234 285.98 44.4828 285.963 44.5053C285.919 44.5619 285.852 44.5916 285.786 44.5916Z" fill="#111111"/>
<path d="M256.848 44.5916C256.781 44.5916 256.715 44.5619 256.671 44.5052C256.654 44.4828 254.889 42.234 252.223 40.0162C249.777 37.9816 246.05 35.5561 242.181 35.5561C242.057 35.5561 241.957 35.4557 241.957 35.3319C241.957 35.2081 242.057 35.1077 242.181 35.1077C244.392 35.1077 247.98 35.9006 252.517 39.6773C255.218 41.9256 257.007 44.2067 257.025 44.2295C257.101 44.3272 257.083 44.4679 256.986 44.5441C256.945 44.5762 256.896 44.5916 256.848 44.5916Z" fill="#111111"/>
<path d="M286.502 38.9475C285.414 28.1448 278.085 23.1117 269.796 23.1117C261.508 23.1117 253.923 28.3093 252.507 38.9161C250.727 52.2502 260.479 59.2479 269.796 59.2479C279.818 59.2479 287.673 50.5868 286.502 38.9475Z" fill="#FFAAC3"/>
<path d="M263.236 28.0258C265.878 32.9142 279.09 37.9348 285.894 36.4814C285.488 32.5547 281.992 28.6047 278.76 24.6567L263.236 28.0258Z" fill="#6F5490"/>
<path d="M293.2 44.9834C293.099 44.9834 293.007 44.9143 292.982 44.8115C292.212 41.6014 289.364 41.0336 289.335 41.0282C289.214 41.0055 289.133 40.8884 289.156 40.7667C289.179 40.645 289.296 40.5648 289.418 40.5875C289.449 40.5934 292.581 41.2173 293.418 44.7069C293.447 44.8273 293.373 44.9483 293.252 44.9772C293.235 44.9814 293.217 44.9834 293.2 44.9834Z" fill="#111111"/>
<path d="M269.796 59.4721C264.801 59.4721 260.085 57.4655 256.858 53.9667C253.373 50.1882 251.791 44.9776 252.284 38.898C252.691 33.8741 254.746 29.704 258.225 26.8385C261.32 24.2907 265.429 22.8876 269.796 22.8876C274.104 22.8876 277.919 24.2523 280.828 26.8343C283.992 29.6434 285.976 33.7081 286.724 38.9157C287.122 41.6891 286.935 44.4044 286.167 46.9862C285.439 49.4365 284.228 51.6508 282.567 53.5673C279.314 57.3199 274.66 59.4721 269.796 59.4721ZM269.796 23.3359C265.533 23.3359 261.524 24.7027 258.511 27.1846C255.126 29.9712 253.128 34.0342 252.731 38.9343C252.249 44.8857 253.79 49.9787 257.187 53.6627C260.33 57.0697 264.925 59.0238 269.796 59.0238C274.53 59.0238 279.061 56.928 282.228 53.2737C283.847 51.4057 285.028 49.2474 285.738 46.8585C286.486 44.3392 286.669 41.6883 286.28 38.9794C285.548 33.8797 283.613 29.9063 280.53 27.1695C277.705 24.6616 273.993 23.3359 269.796 23.3359Z" fill="#111111"/>
<path d="M276.247 38.855C276.247 38.3658 275.872 37.9693 275.41 37.9692C274.948 37.9691 274.574 38.3654 274.574 38.8545C274.574 39.3435 274.948 39.74 275.41 39.7403C275.871 39.7408 276.246 39.3447 276.247 38.8558C276.247 38.8555 276.247 38.8552 276.247 38.855Z" fill="#111111"/>
<path d="M262.855 38.862C262.855 38.3771 262.484 37.9841 262.026 37.9843C261.568 37.9844 261.197 38.3777 261.197 38.8625C261.197 39.3473 261.568 39.7402 262.026 39.7402C262.484 39.7403 262.855 39.3473 262.855 38.8625C262.855 38.8624 262.855 38.8622 262.855 38.862Z" fill="#111111"/>
<path d="M270.057 42.8299C269.988 42.8299 269.921 42.7988 269.877 42.7398C269.867 42.7259 269.241 41.9087 268.455 41.9087C268.454 41.9087 268.454 41.9087 268.453 41.9087C267.997 41.9095 267.558 42.189 267.148 42.7397C267.073 42.8389 266.933 42.8595 266.834 42.7855C266.735 42.7115 266.714 42.5711 266.788 42.4718C267.288 41.8007 267.849 41.4603 268.455 41.4603C269.471 41.4603 270.206 42.4305 270.236 42.4718C270.31 42.5711 270.29 42.7115 270.191 42.7855C270.15 42.8153 270.103 42.8299 270.057 42.8299Z" fill="black"/>
<path d="M268.558 49.0817C266.97 49.0817 265.48 48.357 264.13 46.9276C264.045 46.8376 264.049 46.6957 264.139 46.6107C264.229 46.5258 264.371 46.5296 264.456 46.6198C265.717 47.9549 267.096 48.6324 268.554 48.6335H268.558C271.051 48.6335 272.968 46.6398 272.987 46.6197C273.072 46.5299 273.214 46.5259 273.304 46.6109C273.394 46.6959 273.398 46.8376 273.313 46.9276C273.23 47.0155 271.248 49.0817 268.558 49.0817Z" fill="black"/>
<path d="M282.007 45.6014C282.007 43.6592 280.52 42.0848 278.686 42.0848C276.851 42.0848 275.364 43.6592 275.364 45.6014C275.364 47.5436 276.851 49.118 278.686 49.118C280.52 49.118 282.007 47.5436 282.007 45.6014Z" fill="#FF6996"/>
<path d="M262.079 45.6014C262.079 43.6592 260.592 42.0848 258.758 42.0848C256.924 42.0848 255.437 43.6592 255.437 45.6014C255.437 47.5436 256.924 49.118 258.758 49.118C260.592 49.118 262.079 47.5436 262.079 45.6014Z" fill="#FF6996"/>
<path d="M284.775 32.672C277.328 25.5376 262.355 25.4054 254.116 32.672C250.42 30.1397 246.467 20.3084 255.837 16.5975C269.181 11.3127 283.802 22.9833 284.775 32.672Z" fill="#1E9DF9"/>
<path d="M284.775 32.8962C284.718 32.8962 284.663 32.8747 284.62 32.8339C281.097 29.4586 275.674 27.513 269.742 27.4957C269.716 27.4956 269.69 27.4956 269.663 27.4956C263.727 27.4956 258.118 29.4414 254.264 32.8401C254.184 32.9115 254.063 32.9151 253.978 32.8487C252.851 31.9683 251.727 30.4535 250.972 28.7964C250.352 27.4338 249.677 25.3322 249.986 23.0576C250.389 20.0909 252.383 17.7854 255.752 16.3903C258.778 15.137 262.027 14.7323 265.409 15.1873C268.422 15.5926 271.513 16.7033 274.348 18.3993C277.228 20.1217 279.759 22.3741 281.667 24.9128C283.596 27.4791 284.748 30.1544 284.998 32.6494C285.007 32.7428 284.958 32.8322 284.873 32.8733C284.842 32.8887 284.808 32.8962 284.775 32.8962ZM262.75 15.455C260.379 15.455 258.092 15.9063 255.923 16.8046C252.71 18.1352 250.811 20.3184 250.43 23.1181C249.955 26.6101 251.948 30.5883 254.11 32.3797C258.039 28.9868 263.692 27.0474 269.663 27.0474C269.69 27.0474 269.717 27.0474 269.743 27.0475C275.54 27.0643 280.867 28.895 284.474 32.0896C284.118 29.8501 283.032 27.4757 281.308 25.1823C279.435 22.6895 276.948 20.4771 274.118 18.7842C271.334 17.1191 268.302 16.029 265.349 15.6318C264.473 15.5139 263.606 15.455 262.75 15.455Z" fill="#111111"/>
<path d="M283.195 36.9609C280.245 36.9609 276.603 36.2232 272.926 34.8416C268.007 32.9936 264.311 30.4855 263.039 28.1324C262.98 28.0234 263.02 27.8874 263.129 27.8286C263.238 27.7697 263.374 27.8103 263.433 27.9192C264.637 30.1461 268.335 32.6379 273.083 34.4219C277.936 36.245 282.708 36.9328 285.848 36.2622C285.968 36.2366 286.088 36.3135 286.114 36.4346C286.14 36.5557 286.062 36.6748 285.941 36.7007C285.123 36.8753 284.199 36.9609 283.195 36.9609Z" fill="#111111"/>
<path d="M237.889 109.118C238.962 117.285 239.34 125.433 239.595 131.944C239.851 138.455 239.586 155.367 230.735 155.19C198.455 154.548 195.582 94.7726 217.474 89.6623C236.64 85.1893 237.898 109.258 237.898 109.258" fill="#1E9DF9"/>
<path d="M329.296 131.541C332.745 152.392 316.876 164.307 305.382 158.758C294.562 153.535 286.797 142.419 299.04 127.269C309.037 114.899 327.842 122.755 329.296 131.541Z" fill="#1E9DF9"/>
<path d="M233.878 155.424C233.878 155.424 233.878 155.424 233.878 155.424L230.734 155.415C226.718 155.335 222.985 154.339 219.635 152.455C216.545 150.717 213.783 148.228 211.425 145.057C207.164 139.327 204.321 131.439 203.417 122.844C202.599 115.061 203.429 107.436 205.753 101.373C206.964 98.214 208.539 95.5965 210.432 93.5928C212.456 91.4502 214.809 90.0544 217.423 89.4442C222.487 88.2623 226.776 88.9568 230.169 91.5081C232.258 93.0785 235.12 96.2513 236.893 102.449C237.95 106.144 238.12 109.215 238.122 109.246C238.128 109.37 238.033 109.475 237.91 109.482C237.785 109.489 237.681 109.393 237.674 109.269C237.672 109.239 237.504 106.21 236.459 102.562C234.719 96.4894 231.931 93.3934 229.898 91.8654C226.616 89.3984 222.453 88.7306 217.525 89.8808C214.997 90.4707 212.721 91.8232 210.758 93.9007C208.905 95.8616 207.362 98.4296 206.172 101.533C203.872 107.532 203.052 115.083 203.863 122.797C204.758 131.313 207.571 139.123 211.785 144.79C214.105 147.909 216.82 150.357 219.855 152.064C223.14 153.912 226.802 154.888 230.739 154.967L233.879 154.975C234.003 154.976 234.103 155.076 234.102 155.2C234.102 155.324 234.002 155.424 233.878 155.424Z" fill="black"/>
<path d="M239.595 132.168C239.476 132.168 239.376 132.074 239.371 131.953C239.086 124.674 238.682 116.874 237.666 109.147C237.65 109.024 237.737 108.912 237.859 108.896C237.984 108.88 238.095 108.966 238.111 109.089C239.129 116.833 239.534 124.646 239.819 131.935C239.824 132.059 239.728 132.163 239.604 132.168C239.601 132.168 239.598 132.168 239.595 132.168Z" fill="black"/>
<path d="M293.154 160.613C291.999 160.613 291.053 160.287 290.455 159.374C288.107 155.788 286.659 150.628 286.583 145.569C286.482 138.798 288.787 132.329 293.251 126.864C296.471 122.921 300.898 120.659 306.409 120.141C311.663 119.647 316.507 120.896 318.927 121.684C319.045 121.722 319.109 121.849 319.071 121.967C319.033 122.084 318.906 122.149 318.788 122.11C316.401 121.333 311.625 120.101 306.451 120.587C301.064 121.093 296.74 123.301 293.598 127.148C291.246 130.028 289.498 133.176 288.403 136.505C287.447 139.414 286.985 142.462 287.032 145.563C287.106 150.539 288.526 155.611 290.83 159.129C291.977 160.879 294.87 160.06 297.933 159.193C300.681 158.416 303.523 157.611 305.479 158.556C310.313 160.889 316.055 160.145 320.838 156.565C323.994 154.203 326.447 150.814 327.932 146.763C329.603 142.206 329.987 137.097 329.074 131.578L328.37 127.528C328.349 127.406 328.43 127.29 328.552 127.269C328.675 127.247 328.79 127.329 328.812 127.451L329.516 131.503C330.442 137.101 330.051 142.287 328.353 146.918C326.838 151.05 324.332 154.51 321.107 156.924C316.187 160.606 310.272 161.367 305.284 158.96C303.481 158.089 300.723 158.87 298.055 159.625C296.282 160.127 294.563 160.613 293.154 160.613Z" fill="black"/>
<path d="M201.327 83.3146C201.327 83.3146 197.508 81.1257 200.163 76.5021C200.163 76.5021 205.147 68.3442 218.359 70.8105C231.63 75.0629 227.383 87.5844 224.613 92.6542C224.613 92.6542 225.492 95.7659 225.934 97.3224C220.825 104.017 212.018 100.581 212.018 100.581C211.643 99.5243 211.225 97.4104 210.917 95.5665C207.467 95.4859 203.194 94.4023 203.034 89.5623C203.034 89.5622 199.68 87.8252 201.327 83.3146Z" fill="#FFAAC3"/>
<path d="M210.661 85.0198C209.974 85.0198 209.264 84.9991 208.535 84.957C205.254 84.7672 202.31 84.1838 201.21 83.5054C201.104 83.4405 201.071 83.3023 201.136 83.1969C201.202 83.0914 201.34 83.0588 201.445 83.1238C203.516 84.4008 213.103 85.3992 217.395 83.567C218.56 83.0697 219.243 82.2646 219.319 81.2999C219.399 80.2828 218.761 79.2201 217.654 78.5267C214.687 76.6678 209.45 76.468 208.543 76.5055C208.42 76.5108 208.315 76.4145 208.31 76.2908C208.305 76.1672 208.401 76.0627 208.524 76.0576C209.456 76.019 214.828 76.2271 217.892 78.1469C219.16 78.9411 219.86 80.1329 219.766 81.335C219.677 82.4742 218.897 83.4134 217.571 83.9794C215.984 84.657 213.532 85.0198 210.661 85.0198Z" fill="#111111"/>
<path d="M211.567 90.7188C210.781 90.7188 209.936 90.6855 209.033 90.6189C205.818 90.3818 203.015 89.7873 202.987 89.7813C202.866 89.7554 202.789 89.6363 202.815 89.5152C202.841 89.3942 202.959 89.3168 203.081 89.3429C203.191 89.3664 214.135 91.6666 217.676 88.9165C218.749 88.0835 219.302 87.1858 219.319 86.2485C219.345 84.7859 218.047 83.6843 218.034 83.6733C217.939 83.594 217.926 83.4527 218.005 83.3577C218.085 83.2627 218.226 83.2496 218.321 83.3287C218.381 83.3788 219.795 84.574 219.767 86.253C219.749 87.334 219.138 88.3493 217.951 89.2707C216.711 90.234 214.569 90.7188 211.567 90.7188Z" fill="#111111"/>
<path d="M211.904 95.8337C211.569 95.8337 211.234 95.8192 210.898 95.7898C210.775 95.779 210.683 95.6702 210.694 95.547C210.705 95.4236 210.814 95.3323 210.937 95.3432C211.264 95.3718 211.587 95.3856 211.904 95.3856C215.635 95.3857 218.686 93.4969 219.22 91.5929C219.491 90.6239 219.024 89.7848 217.903 89.2303C217.792 89.1753 217.747 89.0409 217.802 88.9299C217.856 88.819 217.991 88.7735 218.102 88.8284C219.418 89.4798 219.983 90.5315 219.651 91.714C219.339 92.8288 218.235 93.959 216.7 94.7374C215.284 95.4549 213.612 95.8337 211.904 95.8337Z" fill="#111111"/>
<path d="M217.167 101.687C217.131 101.687 217.094 101.687 217.058 101.686C214.209 101.664 212.028 100.826 211.936 100.79C211.875 100.766 211.828 100.717 211.806 100.656C211.374 99.4344 210.927 96.967 210.727 95.7853C208.638 95.7156 206.924 95.2978 205.629 94.5427C203.866 93.515 202.92 91.8844 202.815 89.6944C202.552 89.5334 201.898 89.0765 201.374 88.2498C200.784 87.3191 200.259 85.7305 201.057 83.407C200.747 83.1949 200.052 82.6509 199.553 81.7506C198.473 79.7993 199.183 77.7586 199.969 76.3903C200.024 76.2999 201.28 74.2784 204.192 72.5388C206.869 70.9394 211.507 69.303 218.401 70.5899C218.41 70.5916 218.419 70.5939 218.428 70.5968C222.742 71.9793 225.598 74.3524 226.916 77.6502C227.864 80.0215 228.006 82.825 227.339 85.983C226.709 88.9663 225.53 91.4307 224.854 92.681C224.999 93.1969 225.751 95.8594 226.15 97.261C226.169 97.3289 226.155 97.4021 226.112 97.4582C223.454 100.942 219.802 101.687 217.167 101.687ZM212.195 100.407C212.645 100.568 214.634 101.222 217.076 101.238C220.721 101.261 223.621 99.9295 225.688 97.2749C225.236 95.6869 224.397 92.715 224.397 92.715C224.381 92.6586 224.388 92.5981 224.416 92.5466C225.073 91.3454 226.268 88.8832 226.9 85.8905C227.549 82.8207 227.414 80.1042 226.5 77.8168C225.235 74.6525 222.477 72.3684 218.304 71.0282C211.556 69.7719 207.03 71.3652 204.422 72.9238C201.604 74.6072 200.366 76.5991 200.354 76.619C199.302 78.4509 199.161 80.1005 199.936 81.5168C200.519 82.5807 201.43 83.115 201.439 83.1203C201.533 83.1747 201.575 83.2892 201.538 83.3915C199.981 87.6543 203.008 89.2957 203.138 89.3635C203.209 89.4009 203.256 89.4742 203.258 89.5549C203.411 94.194 207.511 95.2627 210.923 95.3425C211.03 95.3451 211.121 95.4237 211.139 95.5298C211.314 96.5804 211.761 99.1171 212.195 100.407Z" fill="#111111"/>
<path d="M225.582 75.5667C220.237 66.2316 223.999 59.2172 220.204 57.8968C217.112 56.8209 214.907 60.8393 215.073 64.9491C215.171 67.3628 216.049 73.2149 215.687 75.0488" fill="#FFAAC3"/>
<path d="M225.582 75.7909C225.504 75.7909 225.429 75.7504 225.387 75.6781C222.523 70.6757 222.251 66.342 222.052 63.1777C221.882 60.4685 221.769 58.6787 220.131 58.1085C219.233 57.796 218.388 57.926 217.621 58.495C216.144 59.5913 215.188 62.2416 215.297 64.9401C215.331 65.7564 215.456 66.992 215.589 68.3001C215.657 68.9788 215.729 69.6807 215.792 70.373C215.958 72.1722 215.954 72.4572 215.944 73.2186L215.941 73.4114C215.94 73.5352 215.841 73.6346 215.714 73.6329C215.591 73.6315 215.491 73.5299 215.493 73.406L215.495 73.2126C215.506 72.4476 215.509 72.1898 215.346 70.4139C215.282 69.7238 215.211 69.023 215.143 68.3453C215.009 67.0302 214.883 65.7881 214.849 64.9582C214.732 62.0751 215.739 59.333 217.354 58.1349C218.235 57.4815 219.246 57.3259 220.278 57.685C222.198 58.3533 222.324 60.365 222.499 63.1495C222.695 66.2699 222.964 70.5434 225.776 75.4553C225.838 75.5627 225.801 75.6997 225.693 75.7612C225.658 75.7813 225.62 75.7909 225.582 75.7909Z" fill="#111111"/>
<path d="M281.217 157.596C277.947 159.707 282.241 163.899 290.181 164.351C298.703 164.835 305.451 162.716 308.766 157.745C312.113 152.724 313.17 147.175 311.32 139.072C309.151 129.568 311.151 125.595 307.356 124.275C304.265 123.199 302.962 128.18 303.129 132.29C303.227 134.704 303.201 137.567 302.839 139.401C298.523 143.981 292.471 144.445 290.266 144.599C288.061 144.752 284.073 144.745 281.027 146.654C278.929 147.968 278.554 150.395 280.628 151.729C278.785 153.448 278.603 155.769 281.217 157.596Z" fill="#FFAAC3"/>
<path d="M292.514 164.643C291.751 164.643 290.969 164.62 290.168 164.575C286.786 164.382 284.486 163.56 283.152 162.903C281.382 162.033 280.248 160.945 279.959 159.839C279.713 158.896 280.123 158.028 281.114 157.396C281.218 157.329 281.357 157.36 281.423 157.464C281.49 157.569 281.459 157.707 281.355 157.774C280.529 158.3 280.197 158.975 280.393 159.726C280.645 160.689 281.722 161.701 283.35 162.501C284.646 163.139 286.886 163.939 290.194 164.127C294.49 164.371 298.245 163.952 301.353 162.882C304.556 161.779 306.987 160.009 308.579 157.62C310.299 155.04 311.343 152.394 311.77 149.531C312.224 146.486 312.005 143.081 311.101 139.122C310.264 135.453 310.05 132.661 309.877 130.418C309.613 126.978 309.48 125.251 307.283 124.486C306.592 124.246 305.968 124.327 305.427 124.728C304.314 125.554 303.19 128.27 303.353 132.281C303.424 134.039 303.481 137.308 303.059 139.444C303.051 139.486 303.031 139.524 303.002 139.555C298.584 144.244 292.335 144.679 290.281 144.822C290.023 144.84 289.74 144.856 289.437 144.873C287.187 144.998 283.787 145.189 281.145 146.844C280.039 147.537 279.401 148.6 279.48 149.617C279.556 150.581 280.239 151.387 281.404 151.884C283.636 152.837 287.341 153.297 291.316 153.117C295.062 152.947 299.286 151.844 301.827 150.372C301.934 150.31 302.072 150.347 302.134 150.454C302.196 150.561 302.159 150.698 302.052 150.76C299.454 152.264 295.147 153.391 291.336 153.565C287.297 153.748 283.519 153.274 281.228 152.296C279.902 151.73 279.123 150.791 279.034 149.652C278.939 148.45 279.64 147.258 280.908 146.464C283.647 144.747 287.116 144.553 289.412 144.425C289.713 144.408 289.994 144.393 290.25 144.375C292.254 144.235 298.336 143.812 302.631 139.294C302.923 137.76 303.023 135.217 302.905 132.299C302.84 130.695 302.996 129.052 303.344 127.673C303.742 126.097 304.37 124.954 305.16 124.368C305.827 123.873 306.591 123.771 307.43 124.063C309.905 124.924 310.054 126.863 310.324 130.384C310.495 132.612 310.708 135.385 311.539 139.022C312.455 143.037 312.676 146.496 312.213 149.597C311.776 152.527 310.71 155.233 308.952 157.869C307.304 160.341 304.797 162.17 301.499 163.305C298.917 164.195 295.903 164.643 292.514 164.643Z" fill="#111111"/>
</g>
<path d="M60.32 53H64V81H60.32V68.4H46.72V81H43V53H46.72V64.88H60.32V53ZM86.1922 61H89.6722V81H86.1922V77.56C84.4589 80.2 81.9389 81.52 78.6322 81.52C75.8322 81.52 73.4455 80.5067 71.4722 78.48C69.4989 76.4267 68.5122 73.9333 68.5122 71C68.5122 68.0667 69.4989 65.5867 71.4722 63.56C73.4455 61.5067 75.8322 60.48 78.6322 60.48C81.9389 60.48 84.4589 61.8 86.1922 64.44V61ZM79.0722 78.16C81.0989 78.16 82.7922 77.48 84.1522 76.12C85.5122 74.7333 86.1922 73.0267 86.1922 71C86.1922 68.9733 85.5122 67.28 84.1522 65.92C82.7922 64.5333 81.0989 63.84 79.0722 63.84C77.0722 63.84 75.3922 64.5333 74.0322 65.92C72.6722 67.28 71.9922 68.9733 71.9922 71C71.9922 73.0267 72.6722 74.7333 74.0322 76.12C75.3922 77.48 77.0722 78.16 79.0722 78.16ZM105.985 60.48C108.785 60.48 111.171 61.5067 113.145 63.56C115.118 65.5867 116.105 68.0667 116.105 71C116.105 73.9333 115.118 76.4267 113.145 78.48C111.171 80.5067 108.785 81.52 105.985 81.52C102.678 81.52 100.158 80.2 98.4247 77.56V89H94.9447V61H98.4247V64.44C100.158 61.8 102.678 60.48 105.985 60.48ZM105.545 78.16C107.545 78.16 109.225 77.48 110.585 76.12C111.945 74.7333 112.625 73.0267 112.625 71C112.625 68.9733 111.945 67.28 110.585 65.92C109.225 64.5333 107.545 63.84 105.545 63.84C103.518 63.84 101.825 64.5333 100.465 65.92C99.1047 67.28 98.4247 68.9733 98.4247 71C98.4247 73.0267 99.1047 74.7333 100.465 76.12C101.825 77.48 103.518 78.16 105.545 78.16ZM131.297 60.48C134.097 60.48 136.484 61.5067 138.457 63.56C140.431 65.5867 141.417 68.0667 141.417 71C141.417 73.9333 140.431 76.4267 138.457 78.48C136.484 80.5067 134.097 81.52 131.297 81.52C127.991 81.52 125.471 80.2 123.737 77.56V89H120.257V61H123.737V64.44C125.471 61.8 127.991 60.48 131.297 60.48ZM130.857 78.16C132.857 78.16 134.537 77.48 135.897 76.12C137.257 74.7333 137.937 73.0267 137.937 71C137.937 68.9733 137.257 67.28 135.897 65.92C134.537 64.5333 132.857 63.84 130.857 63.84C128.831 63.84 127.137 64.5333 125.777 65.92C124.417 67.28 123.737 68.9733 123.737 71C123.737 73.0267 124.417 74.7333 125.777 76.12C127.137 77.48 128.831 78.16 130.857 78.16ZM158.748 61H162.468L154.308 82.24C153.455 84.5067 152.255 86.2267 150.708 87.4C149.188 88.6 147.428 89.1333 145.428 89V85.76C147.882 85.9467 149.682 84.5867 150.828 81.68L151.188 80.92L142.468 61H146.188L152.988 76.68L158.748 61Z" fill="#045087"/>
</g>
<defs>
<linearGradient id="paint0_linear_2_248" x1="379" y1="2.91316e-05" x2="20.5" y2="139" gradientUnits="userSpaceOnUse">
<stop stop-color="#33A9FF"/>
<stop offset="1" stop-color="#ADDDFF"/>
</linearGradient>
<clipPath id="clip0_2_248">
<rect width="379" height="139" rx="10" fill="white"/>
</clipPath>
<clipPath id="clip1_2_248">
<rect width="131" height="149.65" fill="white" transform="translate(199 15)"/>
</clipPath>
</defs>
</svg>
