<svg width="184" height="39" viewBox="0 0 184 39" fill="none" xmlns="http://www.w3.org/2000/svg">
<path d="M35.4059 19.3913V27H37.6809V19.3913C37.6809 16.2316 39.4251 13.9313 41.8518 13.9313C44.506 13.9313 46.1996 16.0546 46.1996 19.3913V27H48.4746V19.3913C48.4746 14.7149 45.9468 11.6563 41.9276 11.6563C39.6273 11.6563 37.8579 12.996 36.8973 15.2963C35.8862 13.0213 33.9651 11.6563 31.412 11.6563C29.2381 11.6563 27.4686 13.0718 26.862 15.0182V11.8332H24.587V27H26.862V19.4166C26.862 16.2316 28.6314 13.9313 31.0328 13.9313C33.687 13.9313 35.4059 16.0546 35.4059 19.3913ZM50.9019 7.18208C50.9019 8.04153 51.4581 8.59765 52.3175 8.59765C53.177 8.59765 53.7078 8.04153 53.7078 7.18208C53.7078 6.34791 53.177 5.7918 52.3175 5.7918C51.4581 5.7918 50.9019 6.34791 50.9019 7.18208ZM53.455 27V11.8332H51.18V27H53.455ZM67.0201 19.3913V27H69.2951V19.3913C69.2951 14.7149 66.8684 11.6563 63.0262 11.6563C60.8523 11.6563 59.0828 13.0718 58.4762 15.0182V11.8332H56.2011V27H58.4762V19.4166C58.4762 16.2316 60.2456 13.9313 62.647 13.9313C65.3012 13.9313 67.0201 16.0546 67.0201 19.3913ZM84.5266 27H86.8016V5.48846H84.5266V15.0182C83.8188 12.996 81.5185 11.6563 79.1171 11.6563C74.7693 11.6563 71.8876 14.7149 71.8876 19.3913C71.8876 24.0425 74.7946 27.1517 79.1171 27.1517C81.5438 27.1517 83.8188 25.8119 84.5266 23.815V27ZM74.1626 19.3913C74.1626 16.1052 76.286 13.9313 79.3446 13.9313C82.3527 13.9313 84.5266 16.1558 84.5266 19.4166C84.5518 22.7027 82.4285 24.8767 79.3699 24.8767C76.3112 24.8767 74.1626 22.6775 74.1626 19.3913ZM91.4168 27H93.6918V13.9819H97.5341V11.8332H93.6918V10.4429C93.6918 8.4207 94.4755 7.58653 96.346 7.58653H97.5341V5.33679H96.1438C92.8071 5.33679 91.4168 6.77764 91.4168 10.3418V11.8332H88.9649V13.9819H91.4168V27ZM101.906 19.4419V11.8332H99.6305V19.4419C99.6305 24.1183 102.057 27.1769 105.899 27.1769C108.073 27.1769 109.843 25.7614 110.449 23.815V27H112.725V11.8332H110.449V19.4166C110.449 22.6016 108.68 24.9019 106.279 24.9019C103.624 24.9019 101.906 22.7786 101.906 19.4419ZM117.576 27V5.51374H115.301V27H117.576ZM122.698 27V5.51374H120.423V27H122.698ZM136.263 19.3913V27H138.538V19.3913C138.538 14.7149 136.111 11.6563 132.269 11.6563C130.095 11.6563 128.326 13.0718 127.719 15.0182V11.8332H125.444V27H127.719V19.4166C127.719 16.2316 129.488 13.9313 131.89 13.9313C134.544 13.9313 136.263 16.0546 136.263 19.3913ZM152.607 22.3489C151.874 23.8908 150.306 24.9778 148.309 24.9778C145.605 24.9778 143.633 23.0819 143.304 20.2002H155.514C155.564 19.8716 155.589 19.543 155.589 19.2144C155.589 14.9424 152.379 11.631 148.284 11.631C144.138 11.631 140.979 14.9677 140.979 19.3661C140.979 23.9161 144.012 27.1264 148.335 27.1264C151.343 27.1264 153.997 25.18 155.033 22.3489H152.607ZM143.304 18.5066C143.658 15.726 145.655 13.7796 148.284 13.7796C150.913 13.7796 152.961 15.7766 153.264 18.5066H143.304ZM157.198 22.2983C157.299 25.2558 160.105 27.1517 162.961 27.1517C166.096 27.1517 168.447 25.4075 168.447 22.9302C168.447 19.3913 165.439 18.7341 163.113 18.1274C162.127 17.8747 160.004 17.3944 160.004 15.7008C160.029 14.4621 161.293 13.6027 162.961 13.6027C164.604 13.628 165.868 14.5885 166.096 15.9788H168.169C167.84 13.3499 165.818 11.6563 162.961 11.6563C160.029 11.6563 157.729 13.2488 157.729 15.726C157.729 18.3297 159.877 19.3155 162.355 19.998C164.984 20.6805 166.172 21.363 166.172 22.9555C166.172 24.3458 164.832 25.2053 163.012 25.18C161.091 25.1547 159.473 23.8908 159.372 22.2983H157.198ZM170.189 22.2983C170.29 25.2558 173.096 27.1517 175.952 27.1517C179.087 27.1517 181.437 25.4075 181.437 22.9302C181.437 19.3913 178.429 18.7341 176.104 18.1274C175.118 17.8747 172.995 17.3944 172.995 15.7008C173.02 14.4621 174.284 13.6027 175.952 13.6027C177.595 13.628 178.859 14.5885 179.087 15.9788H181.159C180.831 13.3499 178.809 11.6563 175.952 11.6563C173.02 11.6563 170.72 13.2488 170.72 15.726C170.72 18.3297 172.868 19.3155 175.345 19.998C177.974 20.6805 179.162 21.363 179.162 22.9555C179.162 24.3458 177.823 25.2053 176.003 25.18C174.082 25.1547 172.464 23.8908 172.363 22.2983H170.189Z" fill="#577BD9"/>
<circle cx="7.89936" cy="18.4318" r="6.84611" stroke="#577BD9" stroke-width="2.1065"/>
</svg>
