<svg width="379" height="139" viewBox="0 0 379 139" fill="none" xmlns="http://www.w3.org/2000/svg">
<g clip-path="url(#clip0_2_250)">
<rect width="379" height="139" rx="10" fill="url(#paint0_linear_2_250)"/>
<g clip-path="url(#clip1_2_250)">
<path d="M193.079 165.313C193.079 158.423 228.389 99.1312 252.118 94.3994L256.465 165.255L193.079 165.313Z" fill="#92ACEF"/>
<path d="M193.079 165.584C193.007 165.584 192.938 165.555 192.887 165.505C192.837 165.454 192.808 165.385 192.808 165.313C192.808 161.632 201.673 145.08 213.101 129.258C221.559 117.549 237.867 97.415 252.057 94.1358C252.134 94.118 252.216 94.1351 252.279 94.1826C252.343 94.2302 252.383 94.3033 252.388 94.3827L256.735 165.239C256.739 165.313 256.713 165.386 256.662 165.441C256.611 165.495 256.54 165.526 256.465 165.526L193.079 165.584C193.079 165.584 193.079 165.584 193.079 165.584ZM251.867 94.7375C237.922 98.1977 221.891 118.013 213.54 129.575C208.193 136.977 203.051 145.034 199.061 152.261C195.711 158.329 193.568 163.148 193.365 165.042L256.177 164.985L251.867 94.7375Z" fill="black"/>
<path d="M240.386 128.04C236.791 143.382 234.473 158.92 234.499 165.255H334.083C319.212 132.614 300.791 111.149 289.703 95.0596C289.652 94.8 288.614 81.5216 271.611 81.5726C271.062 81.5741 270.497 81.5896 269.915 81.6166C253.094 81.7104 252.118 94.3993 252.118 94.3993" fill="#92ACEF"/>
<path d="M285.527 25.9569C273.155 0.1883 236.6 23.4072 256.086 51.8764C252.858 56.7873 275.975 76.2341 298.253 71.211C310.57 72.681 314.796 54.8185 300.791 49.4978C312.143 36.5481 297.886 22.9987 285.527 25.9569V25.9569Z" fill="#EF4910"/>
<path d="M290.689 72.3104C283.655 72.3105 277.357 70.2848 272.852 68.2836C266.043 65.2595 259.798 60.6393 256.942 56.5129C255.591 54.5616 255.187 52.968 255.765 51.8864C252.504 47.0792 250.658 42.1904 250.278 37.3524C249.939 33.0431 250.81 28.8331 252.797 25.1774C254.565 21.9243 257.148 19.2009 260.267 17.3013C263.37 15.412 266.799 14.4581 270.185 14.5433C273.312 14.6218 276.216 15.5636 278.818 17.3424C281.606 19.2485 283.913 22.0408 285.676 25.6445C288.922 24.9184 292.482 25.2811 295.725 26.6727C298.955 28.0582 301.658 30.3534 303.337 33.1355C306.429 38.26 305.663 44.1644 301.245 49.3851C304.547 50.7195 307.046 52.8624 308.485 55.5995C309.808 58.1143 310.166 61.0066 309.493 63.7438C308.417 68.1243 304.53 72.2101 298.267 71.4849C295.683 72.0641 293.14 72.3104 290.689 72.3104ZM269.768 15.0793C266.617 15.0793 263.439 16.0034 260.549 17.7637C257.511 19.6136 254.995 22.2667 253.273 25.436C251.336 28.9994 250.487 33.1054 250.817 37.3102C251.194 42.1004 253.041 46.9498 256.309 51.7237C256.371 51.8142 256.372 51.9334 256.312 52.025C255.74 52.8943 256.122 54.3788 257.386 56.2051C260.191 60.2556 266.347 64.8026 273.071 67.7892C279.081 70.4587 288.319 73.1737 298.194 70.9471C298.224 70.9403 298.255 70.9387 298.285 70.9423C304.246 71.6537 307.946 67.7747 308.968 63.6148C309.609 61.0061 309.268 58.249 308.007 55.8514C306.578 53.1346 304.05 51.025 300.695 49.7506C300.612 49.7191 300.55 49.6491 300.529 49.5631C300.507 49.477 300.529 49.386 300.588 49.3194C302.957 46.6171 304.308 43.7753 304.605 40.873C304.867 38.3052 304.268 35.7263 302.874 33.4151C301.253 30.7291 298.638 28.5112 295.512 27.1699C292.304 25.7936 288.781 25.4562 285.59 26.2197C285.466 26.2492 285.338 26.1885 285.283 26.0737C280.797 16.7296 273.889 15.1778 270.171 15.0843C270.037 15.0809 269.902 15.0793 269.768 15.0793V15.0793Z" fill="black"/>
<path d="M244.404 50.8521C246.605 46.22 252.169 44.2606 256.832 46.4763C261.494 48.6917 263.49 54.2434 261.289 58.8755C259.087 63.5074 253.523 65.4665 248.861 63.2512C244.198 61.0354 242.203 55.484 244.404 50.8521V50.8521Z" fill="#FBB348"/>
<path d="M271.341 35.5182C271.332 35.5182 271.323 35.5178 271.314 35.5168C271.165 35.5018 271.057 35.3691 271.072 35.2206C271.08 35.1445 271.269 33.3363 272.015 31.5519C272.072 31.4141 272.231 31.349 272.369 31.4067C272.507 31.4644 272.572 31.6228 272.514 31.7607C271.8 33.4682 271.612 35.257 271.61 35.2749C271.596 35.4144 271.479 35.5182 271.341 35.5182V35.5182Z" fill="black"/>
<path d="M334.083 165.526H234.499C234.35 165.526 234.229 165.405 234.228 165.256C234.201 158.461 236.735 142.435 240.123 127.978C240.157 127.833 240.302 127.743 240.448 127.777C240.593 127.811 240.684 127.956 240.649 128.102C236.858 144.282 234.809 159.049 234.769 164.985H333.662C322.155 139.842 308.696 121.552 297.871 106.842C294.828 102.708 291.954 98.8021 289.48 95.213C289.459 95.1825 289.445 95.1481 289.438 95.1117C289.436 95.1007 289.431 95.0717 289.426 95.0256C289.158 92.8208 287.043 81.8429 271.708 81.8429C271.676 81.8429 271.645 81.8429 271.612 81.843C271.083 81.8444 270.532 81.8587 269.927 81.8867C269.923 81.8868 269.92 81.8869 269.916 81.887C266.129 81.9081 262.851 82.5814 260.174 83.8881C258.04 84.9292 256.28 86.3737 254.942 88.1816C252.658 91.2675 252.39 94.389 252.387 94.4202C252.376 94.5691 252.245 94.6802 252.097 94.6688C251.948 94.6573 251.836 94.5274 251.848 94.3785C251.858 94.2459 252.125 91.0921 254.491 87.8826C255.879 85.9986 257.706 84.4939 259.919 83.4105C262.672 82.063 266.032 81.3684 269.907 81.3462C270.518 81.318 271.075 81.3036 271.61 81.3022C271.643 81.3021 271.676 81.3021 271.709 81.3021C287.499 81.3021 289.685 92.6736 289.963 94.9598C292.423 98.5274 295.282 102.411 298.307 106.522C309.201 121.326 322.76 139.751 334.329 165.143C334.367 165.227 334.36 165.324 334.31 165.402C334.26 165.479 334.175 165.526 334.083 165.526V165.526Z" fill="black"/>
<path d="M260.493 76.5267L260.684 90.7367C260.684 90.7367 270.992 100.093 281.549 90.2328L281.757 72.3866L260.493 76.5267Z" fill="#FBB348"/>
<path d="M271.122 95.0202C269.79 95.0202 268.44 94.8275 267.084 94.4426C263.172 93.3315 260.61 91.0342 260.503 90.937C260.447 90.8866 260.415 90.8153 260.414 90.7402L260.222 75.6453C260.22 75.5078 260.322 75.3908 260.459 75.3735L281.723 72.6832C281.8 72.6734 281.878 72.6976 281.937 72.7497C281.995 72.8018 282.028 72.8767 282.027 72.9549L281.819 90.2362C281.819 90.3099 281.788 90.3802 281.734 90.4306C279.289 92.714 276.65 94.1627 273.891 94.7364C272.98 94.9255 272.055 95.0202 271.122 95.0202V95.0202ZM260.953 90.612C261.433 91.0194 263.846 92.9654 267.251 93.9276C269.469 94.5544 271.67 94.6473 273.793 94.204C276.418 93.6557 278.936 92.2796 281.28 90.1136L281.483 73.2589L260.766 75.8798L260.953 90.612Z" fill="black"/>
<path d="M252.886 64.4366C251.471 64.4366 250.062 64.1213 248.745 63.4955C243.955 61.2194 241.898 55.4954 244.16 50.7358C246.421 45.9762 252.158 43.9558 256.948 46.2318C261.738 48.5079 263.795 54.2319 261.533 58.9915C260.437 61.2972 258.503 63.0355 256.087 63.8861C255.043 64.2538 253.963 64.4366 252.886 64.4366ZM244.404 50.8521L244.648 50.9682C242.515 55.4583 244.456 60.8588 248.977 63.0068C251.167 64.0473 253.628 64.1784 255.907 63.3758C258.187 62.5734 260.011 60.9339 261.044 58.7592C263.178 54.2691 261.236 48.8686 256.716 46.7205C252.195 44.5726 246.782 46.4779 244.648 50.9681L244.404 50.8521Z" fill="black"/>
<path d="M252.117 56.3526C252.061 56.3526 252.005 56.3352 251.957 56.2994C251.836 56.2105 251.811 56.0411 251.9 55.921C252.437 55.1956 253.292 54.777 254.371 54.7108C255.165 54.6621 255.801 54.8198 255.828 54.8266C255.972 54.8632 256.06 55.0103 256.024 55.1551C255.987 55.2999 255.84 55.3875 255.695 55.3512C255.663 55.3433 253.403 54.8013 252.335 56.243C252.282 56.3146 252.2 56.3524 252.117 56.3526V56.3526Z" fill="black"/>
<path d="M255.028 61.9984C255.006 61.9984 254.983 61.9956 254.96 61.9898C254.816 61.9526 254.729 61.8053 254.766 61.6607C254.781 61.5999 256.017 56.3744 250.784 48.7192C250.699 48.5959 250.731 48.4276 250.854 48.3432C250.978 48.2589 251.146 48.2905 251.23 48.4139C254.04 52.5236 254.996 55.9283 255.303 58.0609C255.64 60.3938 255.304 61.7391 255.29 61.7952C255.258 61.9173 255.148 61.9984 255.028 61.9984V61.9984Z" fill="black"/>
<path d="M271.341 35.2477C271.341 35.2477 262.024 34.4678 257.397 43.7486C252.827 52.9128 244.564 67.6429 261.517 77.7909C261.945 78.0471 262.418 78.2682 262.889 78.4309C276.131 83.0164 282.086 76.9977 282.086 76.9977C282.086 76.9977 282.337 83.5606 289.716 85.1004C295.724 86.5238 299.72 82.8383 301.391 78.6059C304.964 69.5533 294.899 61.8934 289.429 66.0869C284.827 64.7354 281.297 56.2496 284.053 51.1969C277.81 50.336 270.022 43.3176 271.341 35.2477V35.2477Z" fill="#FBB348"/>
<path d="M292.201 85.3713C290.79 85.3713 289.38 85.0413 288.021 84.3843C283.082 81.9963 282.073 78.8142 281.868 77.5456C281.221 78.0608 279.801 79.0205 277.53 79.6932C275.785 80.2101 273.997 80.419 272.249 80.4191C268.72 80.4192 265.35 79.5694 262.8 78.6865C262.314 78.5183 261.822 78.2888 261.378 78.0229C257.515 75.7106 254.703 72.992 253.021 69.943C251.561 67.2986 250.905 64.3156 251.069 61.0768C251.37 55.1459 254.284 49.3463 256.625 44.6864C256.806 44.326 256.983 43.9731 257.155 43.628C259.587 38.7507 263.317 36.658 266.019 35.7613C268.946 34.7898 271.266 34.9702 271.364 34.9783C271.439 34.9845 271.508 35.022 271.555 35.0814C271.601 35.1409 271.62 35.217 271.608 35.2914C270.957 39.2789 272.609 42.5404 274.111 44.5743C276.596 47.9413 280.513 50.4358 284.09 50.929C284.178 50.9411 284.255 50.9957 284.295 51.0752C284.335 51.1546 284.333 51.2485 284.291 51.3265C282.999 53.6946 283.034 57.0532 284.385 60.311C285.528 63.0688 287.431 65.1521 289.377 65.7878C291.852 63.9857 295.491 64.3617 298.484 66.7443C301.405 69.07 303.921 73.7485 301.398 79.2802C300.252 81.7931 297.998 83.8598 295.368 84.8084C294.327 85.184 293.263 85.3713 292.201 85.3713V85.3713ZM282.086 76.7274C282.121 76.7274 282.157 76.7342 282.191 76.7483C282.292 76.7907 282.358 76.8901 282.357 77.0002C282.357 77.0398 282.412 81.0711 288.257 83.8974C290.505 84.9844 292.9 85.1234 295.184 84.2995C297.642 83.4127 299.835 81.4033 300.905 79.0556C303.299 73.8077 300.915 69.3718 298.147 67.1675C295.306 64.9057 291.868 64.5576 289.593 66.3015C289.525 66.3541 289.435 66.3708 289.353 66.3464C287.177 65.7075 285.133 63.5287 283.885 60.5181C282.535 57.2615 282.451 53.8902 283.642 51.4066C280.032 50.779 276.157 48.2576 273.675 44.8957C272.15 42.8293 270.475 39.5414 271.029 35.5054C270.323 35.4904 268.41 35.5338 266.168 36.2819C263.571 37.1482 259.983 39.1679 257.639 43.8694C257.467 44.215 257.289 44.5684 257.108 44.9293C254.79 49.544 251.905 55.2871 251.609 61.1042C251.263 67.9224 254.549 73.3047 261.656 77.5588C262.069 77.8058 262.526 78.019 262.977 78.1753C266.704 79.4657 272.22 80.6884 277.339 79.1855C280.395 78.2885 281.88 76.8219 281.894 76.8072C281.946 76.7551 282.016 76.7274 282.086 76.7274V76.7274Z" fill="black"/>
<path d="M290.978 77.4528C290.956 77.4528 290.933 77.4501 290.911 77.4445C290.766 77.4079 290.679 77.2608 290.715 77.1159C291.062 75.7429 289.57 74.612 289.555 74.6008C289.435 74.5116 289.41 74.3422 289.499 74.2224C289.588 74.1026 289.757 74.0774 289.877 74.1661C289.951 74.2206 291.676 75.5219 291.24 77.2485C291.209 77.3712 291.098 77.4528 290.978 77.4528Z" fill="black"/>
<path d="M287.153 76.5775C287.097 76.5775 287.04 76.5603 286.992 76.5245C286.872 76.4358 286.847 76.267 286.935 76.1469C287.043 76 289.673 72.5421 297.264 71.8995C297.413 71.8875 297.544 71.9975 297.557 72.1463C297.569 72.2952 297.459 72.4261 297.31 72.4386C293.479 72.7628 290.98 73.8422 289.558 74.6907C288.02 75.6081 287.377 76.4598 287.37 76.4682C287.317 76.5398 287.236 76.5775 287.153 76.5775V76.5775Z" fill="black"/>
<path d="M264.231 50.4182C264.414 50.0319 264.876 49.8672 265.263 50.0511C265.649 50.2345 265.813 50.6966 265.629 51.0829C265.445 51.4693 264.984 51.634 264.598 51.4505C264.211 51.2666 264.047 50.8047 264.231 50.4182V50.4182Z" fill="black"/>
<path d="M264.928 51.7957C264.778 51.7957 264.626 51.7633 264.482 51.6948C264.229 51.5749 264.039 51.364 263.945 51.1009C263.852 50.838 263.866 50.5543 263.986 50.3021C264.106 50.05 264.317 49.8596 264.58 49.766C264.843 49.6722 265.126 49.6869 265.379 49.8067C265.631 49.9265 265.821 50.1373 265.914 50.4004C266.008 50.6633 265.993 50.947 265.873 51.199C265.695 51.5752 265.319 51.7957 264.928 51.7957ZM264.93 50.2463C264.873 50.2463 264.816 50.256 264.761 50.2757C264.634 50.3209 264.533 50.4127 264.475 50.5343C264.417 50.6561 264.41 50.7929 264.455 50.9197C264.5 51.0465 264.592 51.1482 264.714 51.2061C264.964 51.3254 265.265 51.2178 265.385 50.9668C265.443 50.8451 265.45 50.7082 265.405 50.5814C265.36 50.4547 265.268 50.3531 265.146 50.2954C265.078 50.2627 265.004 50.2463 264.93 50.2463ZM264.231 50.4182H264.232H264.231Z" fill="black"/>
<path d="M276.612 56.2559C276.795 55.8696 277.257 55.7049 277.644 55.8888C278.03 56.0723 278.194 56.5342 278.01 56.9205C277.826 57.307 277.365 57.4717 276.979 57.2881C276.592 57.1044 276.428 56.6423 276.612 56.2559V56.2559Z" fill="black"/>
<path d="M277.31 57.6341C277.157 57.6341 277.005 57.6001 276.862 57.5325C276.61 57.4126 276.42 57.2017 276.326 56.9386C276.233 56.6757 276.247 56.392 276.367 56.1398C276.614 55.6193 277.239 55.3972 277.76 55.6444C278.012 55.7642 278.202 55.975 278.295 56.2381C278.389 56.5009 278.374 56.7845 278.254 57.0366C278.135 57.2888 277.924 57.4792 277.661 57.5729C277.546 57.6137 277.428 57.6341 277.31 57.6341ZM276.856 56.372C276.798 56.4938 276.791 56.6306 276.836 56.7575C276.881 56.8843 276.973 56.986 277.095 57.0438C277.216 57.1015 277.353 57.1084 277.479 57.0633C277.606 57.018 277.708 56.9262 277.766 56.8044C277.824 56.6827 277.831 56.5459 277.786 56.4191C277.741 56.2924 277.649 56.1908 277.528 56.1331C277.276 56.0138 276.975 56.121 276.856 56.372V56.372Z" fill="black"/>
<path d="M272.705 64.447C273.807 62.1289 276.578 61.1429 278.896 62.2444C281.214 63.346 282.2 66.117 281.098 68.4353C279.996 70.7535 277.226 71.7399 274.907 70.6383C272.589 69.5367 271.603 66.7652 272.705 64.447V64.447Z" fill="#E79F33"/>
<path d="M253.5 55.2817C254.593 52.9813 257.344 52.003 259.644 53.096C261.943 54.1886 262.922 56.939 261.829 59.2395C260.736 61.54 257.985 62.5183 255.686 61.4257C253.386 60.3327 252.407 57.5821 253.5 55.2817V55.2817Z" fill="#E79F33"/>
<path d="M269.334 58.7564C269.224 58.7564 269.121 58.6896 269.08 58.5812C268.392 56.7551 266.51 57.2085 266.43 57.2287C266.286 57.2653 266.139 57.1777 266.102 57.0329C266.065 56.888 266.153 56.7409 266.298 56.7042C266.322 56.6982 268.73 56.1172 269.587 58.3903C269.639 58.5302 269.569 58.6862 269.429 58.7389C269.398 58.7508 269.365 58.7564 269.334 58.7564V58.7564Z" fill="black"/>
<path d="M286.505 30.0749C286.362 30.0749 286.242 29.9622 286.235 29.8175C286.234 29.795 286.115 27.5429 285.292 26.0903C285.218 25.9603 285.264 25.7952 285.394 25.7215C285.524 25.6478 285.689 25.6935 285.762 25.8234C286.65 27.3894 286.771 29.694 286.776 29.7914C286.783 29.9406 286.668 30.0673 286.519 30.0745C286.514 30.0748 286.51 30.0749 286.505 30.0749V30.0749Z" fill="black"/>
<path d="M298.349 51.583C298.258 51.583 298.169 51.5373 298.118 51.4544C298.04 51.3273 298.079 51.1607 298.206 51.0822C298.223 51.072 299.859 50.0596 300.598 49.3081C300.703 49.2016 300.874 49.2003 300.981 49.305C301.087 49.4098 301.089 49.581 300.984 49.6875C300.198 50.4859 298.56 51.4999 298.49 51.5426C298.446 51.57 298.397 51.583 298.349 51.583V51.583Z" fill="black"/>
<path d="M284.053 51.4674C284.009 51.4674 283.965 51.4569 283.924 51.4348C283.793 51.3637 283.744 51.1995 283.815 51.068C284.515 49.7758 285.326 49.1223 285.361 49.0952C285.477 49.0022 285.648 49.0217 285.741 49.1387C285.834 49.2556 285.814 49.4258 285.697 49.5187C285.69 49.5244 284.934 50.137 284.291 51.3256C284.242 51.4161 284.149 51.4674 284.053 51.4674V51.4674Z" fill="black"/>
<path d="M264.706 65.1434C264.505 65.2278 265.259 65.2303 265.564 65.2737C266.502 65.5241 267.231 65.9896 267.272 66.0336C267.344 66.1116 267.374 66.2219 267.338 66.2801C267.303 66.3382 267.216 66.3221 267.143 66.2443C267.134 66.2346 265.588 65.6955 265.588 65.6955C265.092 65.6256 264.327 65.6594 264.293 65.6824C264.263 65.7457 264.255 65.5672 264.18 65.4934C264.106 65.4196 263.982 65.0573 264.1 65.3733C264.351 65.2062 264.505 65.277 264.706 65.1434Z" fill="black"/>
<path d="M344.74 136.285C337.85 127.25 314.861 107.648 312.617 106.073C310.372 104.499 297.712 96.1973 289.703 95.0596L280.015 129.246C280.015 129.246 331.736 170.57 343.793 161.613C355.85 152.656 344.74 136.285 344.74 136.285V136.285Z" fill="#92ACEF"/>
<path d="M343.793 161.884C343.71 161.884 343.629 161.846 343.576 161.774C343.487 161.654 343.512 161.485 343.632 161.396C346.327 159.394 348.053 156.846 348.762 153.822C349.332 151.394 349.253 148.65 348.528 145.668C347.308 140.648 344.638 136.619 344.52 136.442C337.48 127.215 315.606 108.625 312.455 106.291C308.867 103.632 297.776 96.4796 289.665 95.3274C289.517 95.3064 289.414 95.1694 289.435 95.0215C289.456 94.8736 289.593 94.7704 289.741 94.7917C297.964 95.9597 309.158 103.175 312.777 105.856C315.938 108.198 337.891 126.858 344.955 136.121C344.958 136.125 344.961 136.129 344.964 136.133C344.992 136.174 347.783 140.326 349.051 145.526C349.798 148.594 349.879 151.424 349.291 153.938C348.553 157.093 346.757 159.748 343.954 161.83C343.906 161.866 343.849 161.884 343.793 161.884V161.884Z" fill="black"/>
<path d="M338.97 135.604C333.867 134.152 324.19 120.691 313.547 115.553C305.167 111.507 297.14 113.481 293.496 125.162C291.275 123.525 275.075 136.474 291.171 150.398C297.276 155.678 303.823 156.031 313.858 159.718C323.947 163.426 331.59 166.186 339.487 165.058C349.133 163.68 356.597 150.739 344.74 136.285L338.97 135.604Z" fill="#92ACEF"/>
<path d="M335.847 165.583C329.036 165.583 322.147 163.052 313.765 159.972C310.73 158.857 307.992 158.007 305.576 157.256C299.928 155.502 295.467 154.116 291.004 150.611C287.404 147.782 285.151 144.574 284.31 141.074C283.619 138.198 283.914 135.156 285.165 132.277C286.097 130.13 287.525 128.165 289.185 126.744C290.664 125.476 292.144 124.804 293.295 124.869C294.583 120.165 296.999 116.706 300.29 114.857C303.253 113.192 306.833 112.853 310.369 113.904C317.11 115.907 323.878 122.401 329.316 127.618C333.257 131.4 336.661 134.666 339.044 135.344C339.188 135.385 339.271 135.534 339.23 135.678C339.189 135.822 339.04 135.905 338.896 135.864C336.383 135.149 332.935 131.84 328.941 128.009C323.546 122.832 316.83 116.388 310.215 114.423C306.82 113.414 303.389 113.736 300.555 115.328C297.342 117.134 294.992 120.558 293.758 125.231C293.722 125.365 293.591 125.45 293.455 125.429C291.365 125.104 287.588 128.057 285.661 132.493C284.458 135.263 284.172 138.187 284.836 140.948C285.648 144.326 287.836 147.434 291.339 150.186C295.723 153.63 300.142 155.002 305.737 156.74C308.158 157.492 310.903 158.345 313.951 159.465C323.77 163.072 331.526 165.922 339.449 164.79C343.954 164.147 347.832 160.972 349.569 156.504C350.644 153.742 350.85 150.593 350.165 147.396C349.383 143.741 347.487 140.06 344.531 136.457C344.437 136.341 344.453 136.171 344.569 136.076C344.684 135.981 344.855 135.998 344.95 136.113C347.961 139.785 349.894 143.542 350.694 147.282C351.401 150.583 351.186 153.84 350.074 156.7C348.265 161.35 344.223 164.655 339.525 165.326C338.296 165.501 337.072 165.583 335.847 165.583V165.583Z" fill="black"/>
<path d="M293.785 129.954C293.667 129.954 293.558 129.875 293.525 129.755C292.969 127.725 293.216 125.239 293.227 125.134C293.242 124.985 293.375 124.877 293.524 124.892C293.673 124.908 293.781 125.041 293.765 125.189C293.763 125.214 293.518 127.681 294.046 129.612C294.086 129.756 294.001 129.905 293.857 129.945C293.833 129.951 293.809 129.954 293.785 129.954V129.954Z" fill="black"/>
<path d="M290.615 130.234C296.897 131.661 302.229 122.765 300.53 119.201L294.703 114.16C297.448 109.07 298.376 107.153 302.454 100.117C307.277 91.7964 312.196 68.7954 306.12 67.6183C300.043 66.4412 298.686 82.6545 298.686 82.6545C298.686 82.6545 295.28 70.9965 289.29 72.626C286.343 73.4276 286.816 77.7556 286.816 77.7556C286.816 77.7556 283.993 76.0284 282.086 76.9976C280.804 77.6496 280.11 79.3652 281.549 82.6669C283.447 87.0212 286.707 91.1349 285.902 92.9255C283.341 98.6176 274.867 110.046 277.274 117.777C278.69 122.323 290.615 130.234 290.615 130.234Z" fill="#FBB348"/>
<path d="M291.912 130.668C291.461 130.668 291.005 130.613 290.548 130.496C290.519 130.488 290.491 130.476 290.467 130.46C289.983 130.141 278.611 122.608 277.018 117.863C275.012 111.886 279.664 103.669 283.061 97.6694C284.131 95.7797 285.055 94.1478 285.655 92.8145C286.122 91.7751 284.885 89.5512 283.576 87.1968C282.824 85.8448 281.971 84.3125 281.301 82.7749C279.472 78.5771 281.155 77.1676 281.964 76.7564C283.537 75.9565 285.619 76.8261 286.517 77.2832C286.487 76.0707 286.676 73.0564 289.219 72.3649C291.798 71.6632 294.305 73.2285 296.467 76.8916C297.44 78.5404 298.144 80.2782 298.547 81.3924C298.919 78.317 300.163 70.4768 303.391 68.0335C304.242 67.3893 305.177 67.1602 306.171 67.3527C307.117 67.5359 307.855 68.1966 308.364 69.3164C311.091 75.3079 306.753 93.2406 302.688 100.252C299.54 105.684 298.303 108.001 296.592 111.208C296.115 112.1 295.624 113.021 295.044 114.097L300.707 118.996C300.732 119.017 300.753 119.043 300.768 119.072C301.711 120.823 300.883 123.945 298.753 126.665C297.148 128.714 294.614 130.668 291.912 130.668V130.668ZM290.726 129.983C293.653 130.708 296.568 128.577 298.327 126.331C300.31 123.799 301.121 120.948 300.314 119.372L294.526 114.364C294.43 114.281 294.405 114.143 294.465 114.031C295.089 112.874 295.61 111.898 296.114 110.953C297.764 107.862 299.067 105.421 302.22 99.9812C304.215 96.539 306.309 90.3563 307.554 84.2297C308.927 77.4685 309.043 72.1147 307.872 69.5406C307.439 68.5894 306.832 68.032 306.068 67.884C305.22 67.7196 304.451 67.9097 303.717 68.4651C299.947 71.3193 298.965 82.5639 298.955 82.6771C298.944 82.8069 298.842 82.9106 298.713 82.9237C298.583 82.9369 298.462 82.8555 298.426 82.7304C298.393 82.6164 295.025 71.3462 289.361 72.8872C288.247 73.1899 287.525 74.0808 287.215 75.5352C286.974 76.6626 287.083 77.716 287.084 77.7265C287.096 77.829 287.047 77.9289 286.96 77.984C286.873 78.0392 286.762 78.0402 286.674 77.9865C286.647 77.9701 283.956 76.3503 282.209 77.2388C280.788 77.9611 280.638 79.9001 281.797 82.5589C282.457 84.0724 283.302 85.5927 284.048 86.9339C285.545 89.6245 286.727 91.7495 286.148 93.0365C285.538 94.3927 284.609 96.0348 283.532 97.9361C280.185 103.847 275.601 111.943 277.531 117.691C279.021 122.129 289.992 129.494 290.726 129.983V129.983Z" fill="#111111"/>
<path d="M299.957 94.708C299.944 94.708 299.93 94.7071 299.916 94.705C299.769 94.6828 299.667 94.5451 299.689 94.3973C300.504 88.9705 298.454 82.8151 298.433 82.7535C298.386 82.6119 298.462 82.4584 298.603 82.4106C298.744 82.3628 298.898 82.4387 298.946 82.5802C298.967 82.643 301.059 88.9228 300.224 94.4775C300.204 94.6118 300.089 94.708 299.957 94.708V94.708Z" fill="#111111"/>
<path d="M292.638 100.387C292.607 100.387 292.576 100.382 292.545 100.371C292.405 100.319 292.333 100.164 292.384 100.023C292.408 99.9588 294.752 93.5035 293.638 89.4903C292.489 85.3521 289.839 80.155 286.508 77.8729C286.385 77.7885 286.353 77.6201 286.438 77.4969C286.522 77.3736 286.69 77.3421 286.814 77.4266C288.425 78.5307 290.002 80.3639 291.374 82.7282C292.546 84.7499 293.536 87.1 294.159 89.3455C294.648 91.1072 294.583 93.4735 293.965 96.3783C293.507 98.5289 292.898 100.194 292.892 100.21C292.852 100.32 292.748 100.387 292.638 100.387V100.387Z" fill="#111111"/>
<path d="M293.795 116.322C293.756 116.322 293.716 116.313 293.677 116.294C293.543 116.229 293.487 116.067 293.552 115.933L294.47 114.043C294.535 113.909 294.697 113.852 294.831 113.918C294.966 113.983 295.022 114.145 294.957 114.279L294.039 116.169C293.992 116.266 293.896 116.322 293.795 116.322Z" fill="black"/>
<path d="M193.079 165.313C170.86 162.874 177.558 134.108 187.995 118.725C194.567 109.04 202.552 100.983 214.272 106.074C232.063 113.802 231.124 123.981 226.021 136.246C226.021 136.246 212.715 167.469 193.079 165.313V165.313Z" fill="#92ACEF"/>
<path d="M193.079 165.584C193.069 165.584 193.059 165.583 193.049 165.582C186.609 164.878 182.161 161.962 179.828 156.914C175.073 146.624 180.372 129.48 187.771 118.573C191.79 112.65 195.378 108.854 199.063 106.627C203.892 103.708 208.902 103.446 214.38 105.825C222.741 109.457 227.521 113.894 228.993 119.388C230.489 124.973 228.456 131.097 226.27 136.35C226.213 136.488 226.055 136.553 225.917 136.496C225.779 136.439 225.713 136.28 225.771 136.142C227.922 130.973 229.925 124.957 228.47 119.528C227.044 114.204 222.364 109.884 214.164 106.322C208.859 104.017 204.011 104.268 199.343 107.09C195.727 109.275 192.192 113.021 188.219 118.877C180.903 129.661 175.647 146.577 180.319 156.687C182.565 161.547 186.862 164.358 193.093 165.042L198.46 165.014C198.606 165.014 198.731 165.133 198.732 165.283C198.733 165.432 198.612 165.554 198.463 165.555L193.08 165.584C193.08 165.584 193.079 165.584 193.079 165.584V165.584Z" fill="black"/>
<path d="M253.094 59.5866C251.356 53.7066 239.929 56.5883 234.431 61.8727C227.767 67.4974 227.655 71.227 227.655 71.227C226.855 70.9714 217.772 65.0554 214.272 71.6412C209.231 81.1233 202.752 94.014 209.938 100.711C207.582 106.198 206.169 109.398 206.169 109.398C205.078 113.614 216.734 119.068 220.377 115.638C220.377 115.638 222.81 110.382 224.783 106.073C236.961 105.415 248.74 80.6608 244.316 76.4849C242.03 74.327 239.513 76.1603 237.049 81.0365C238.438 76.0749 238.575 72.8052 243.508 68.2561C248.388 65.9042 253.159 64.91 253.094 59.5866V59.5866Z" fill="#FBB348"/>
<path d="M217.271 117.063C215.372 117.063 213.053 116.442 211.049 115.506C208.126 114.141 205.24 111.801 205.908 109.327C205.912 109.314 205.916 109.301 205.922 109.289C205.936 109.257 207.331 106.096 209.615 100.778C206.453 97.726 205.683 93.2667 207.258 87.1531C208.594 81.9698 211.337 76.5852 214.033 71.5143C215.402 68.9388 217.739 67.8881 220.979 68.392C223.538 68.7899 225.973 70.0627 227.143 70.6743C227.276 70.7435 227.405 70.8109 227.51 70.8642C228.092 69.4843 231.059 63.1242 237.73 59.1313C242.751 56.1252 247.688 55.236 250.935 56.7528C252.296 57.3884 253.181 58.4058 253.361 59.5442C253.68 61.5469 252.906 63.2528 250.995 64.7596C249.405 66.0134 247.281 66.9105 245.574 67.6314C244.848 67.938 244.163 68.2276 243.631 68.4976C241.369 69.6461 238.064 76.2303 237.317 81.0781C237.294 81.2258 237.156 81.3271 237.008 81.3042C236.86 81.2815 236.759 81.1433 236.782 80.9956C237.492 76.3914 240.743 69.3567 243.386 68.0151C243.935 67.7365 244.629 67.4434 245.364 67.133C248.787 65.6872 253.475 63.7073 252.827 59.6291C252.675 58.671 251.902 57.8014 250.707 57.243C249.551 56.7034 245.22 55.278 238.008 59.5955C230.699 63.9706 227.936 71.248 227.909 71.321C227.858 71.4566 227.71 71.5288 227.572 71.4848C227.458 71.4481 227.271 71.3515 226.893 71.1538C224.559 69.9341 217.459 66.2228 214.511 71.7683C211.83 76.8105 209.103 82.1622 207.782 87.2881C206.238 93.2803 207.004 97.6063 210.123 100.513C210.206 100.591 210.232 100.713 210.187 100.818C207.952 106.023 206.548 109.21 206.426 109.488C206.077 110.835 207.138 113.083 211.278 115.016C214.676 116.603 218.911 117.214 220.142 115.502C220.318 115.122 222.652 110.077 224.537 105.961C224.599 105.825 224.76 105.765 224.896 105.828C225.031 105.89 225.091 106.05 225.029 106.186C223.079 110.446 220.647 115.699 220.622 115.752C220.616 115.766 220.608 115.78 220.599 115.793C219.974 116.687 218.749 117.063 217.271 117.063V117.063Z" fill="black"/>
<path d="M224.783 106.073C236.961 105.415 249.24 80.0576 244.316 76.485C240.888 73.9983 238.425 76.2094 234.673 83.2382C231.597 89.0021 227.892 89.1344 227.892 89.1344L224.783 106.073Z" fill="#FBB348"/>
<path d="M227.371 61.901C231.484 60.9472 233.428 65.4076 234.236 71.6118C235.044 77.8161 233.52 82.7198 230.63 83.0717C227.74 83.4244 224.908 79.8107 224.099 73.6071C223.291 67.4026 223.165 63.4939 227.371 61.901Z" fill="#FBB348"/>
<path d="M230.242 83.3657C228.85 83.3657 227.487 82.5233 226.364 80.9554C225.103 79.193 224.227 76.669 223.833 73.6557C222.742 69.0199 223.129 65.177 224.896 63.1113C225.813 62.0388 227.072 61.5052 228.443 61.609C231.86 61.8679 233.616 64.7558 234.504 71.5768C235.087 76.0465 234.496 79.923 232.926 81.9466C232.29 82.7659 231.528 83.2348 230.662 83.3402C230.522 83.3573 230.382 83.3657 230.242 83.3657V83.3657ZM228.098 62.137C227.012 62.137 226.052 62.5916 225.307 63.4629C223.652 65.3981 223.308 69.0729 224.363 73.545C224.365 73.5539 224.366 73.5629 224.368 73.572C225.079 79.0322 227.515 82.8247 230.239 82.825C230.358 82.825 230.477 82.8177 230.597 82.8031C231.314 82.7158 231.954 82.316 232.498 81.6149C233.96 79.7314 234.523 75.9119 233.968 71.6469C233.12 65.1357 231.507 62.3839 228.402 62.1487C228.3 62.1408 228.198 62.137 228.098 62.137Z" fill="black"/>
<path d="M214.704 70.846C217.592 65.8979 218.918 65.4165 221.829 64.9615C225.497 64.3875 226.727 68.6908 227.263 74.4185C227.798 80.1453 226.433 82.8326 223.575 83.0995C221.233 83.3178 218.71 81.164 217.583 77.225L214.704 70.846Z" fill="#FBB348"/>
<path d="M223.253 83.3848C222.114 83.3848 220.95 82.8722 219.938 81.9179C218.779 80.8254 217.875 79.2283 217.323 77.2992C217.282 77.1556 217.365 77.0057 217.508 76.9646C217.652 76.9236 217.802 77.0066 217.843 77.1503C218.863 80.7125 221.209 83.048 223.55 82.83C224.916 82.7024 225.863 82.0045 226.444 80.6964C227.066 79.2979 227.251 77.1942 226.994 74.4435C226.486 69.0186 225.497 65.5784 222.137 65.1903C218.581 64.7798 216.808 67.8237 214.564 71.6775L214.506 71.7774C214.43 71.9065 214.265 71.9502 214.136 71.875C214.007 71.7998 213.963 71.6342 214.038 71.5051L214.096 71.4052C216.347 67.5399 218.291 64.2014 222.199 64.6529C225.922 65.0828 227 68.6985 227.533 74.3932C227.798 77.2373 227.598 79.432 226.939 80.9162C226.28 82.3982 225.157 83.2233 223.6 83.3688C223.485 83.3795 223.369 83.3848 223.253 83.3848V83.3848Z" fill="black"/>
<path d="M224.782 106.344C224.64 106.344 224.52 106.232 224.513 106.088C224.505 105.939 224.619 105.811 224.768 105.803C228.554 105.599 232.821 102.817 236.785 97.9703C240.144 93.8627 243.064 88.4845 244.406 83.9345C245.494 80.244 245.404 77.6087 244.157 76.7041C243.001 75.8656 241.949 75.5821 240.94 75.8376C239.062 76.3133 237.148 78.702 234.917 83.3552C232.646 88.0933 229.806 88.8472 229.686 88.8769C229.541 88.9129 229.394 88.8247 229.358 88.6797C229.322 88.5347 229.411 88.3879 229.556 88.3519C229.582 88.3452 232.278 87.6076 234.429 83.1214C236.767 78.2464 238.734 75.8384 240.807 75.3131C241.981 75.0159 243.181 75.3275 244.475 76.2662C245.939 77.3287 246.099 80.1064 244.925 84.0876C243.564 88.7022 240.605 94.153 237.203 98.3128C235.292 100.65 233.313 102.523 231.32 103.881C229.087 105.402 226.892 106.23 224.797 106.344C224.792 106.344 224.787 106.344 224.782 106.344V106.344Z" fill="black"/>
<path d="M219.34 93.2103C219.29 93.2103 219.24 93.1967 219.195 93.1679C219.069 93.0876 219.032 92.9204 219.112 92.7943C220.856 90.0556 224.578 89.3738 224.736 89.3461C224.883 89.3203 225.023 89.4185 225.049 89.5657C225.075 89.7128 224.977 89.8531 224.83 89.8791C224.793 89.8855 221.183 90.5499 219.568 93.0851C219.517 93.166 219.429 93.2103 219.34 93.2103Z" fill="black"/>
<path d="M214.705 103.861C214.672 103.861 214.639 103.855 214.607 103.843C211.648 102.702 209.827 100.979 209.751 100.906C209.643 100.803 209.64 100.632 209.743 100.524C209.846 100.416 210.017 100.412 210.125 100.516C210.143 100.533 211.949 102.239 214.802 103.338C214.941 103.392 215.011 103.548 214.957 103.688C214.916 103.795 214.813 103.861 214.705 103.861V103.861Z" fill="black"/>
</g>
<path d="M60.4 53H64.12V81H61.12L46.72 60.08V81H43V53H46L60.4 73.88V53ZM72.1894 72.6C72.536 74.3867 73.3494 75.7733 74.6294 76.76C75.936 77.7467 77.536 78.24 79.4294 78.24C82.0694 78.24 83.9894 77.2667 85.1894 75.32L88.1494 77C86.2027 80.0133 83.2694 81.52 79.3494 81.52C76.176 81.52 73.5894 80.5333 71.5894 78.56C69.616 76.56 68.6294 74.04 68.6294 71C68.6294 67.9867 69.6027 65.48 71.5494 63.48C73.496 61.48 76.016 60.48 79.1094 60.48C82.0427 60.48 84.4294 61.52 86.2694 63.6C88.136 65.6533 89.0694 68.1333 89.0694 71.04C89.0694 71.5467 89.0294 72.0667 88.9494 72.6H72.1894ZM79.1094 63.76C77.2427 63.76 75.696 64.2933 74.4694 65.36C73.2427 66.4 72.4827 67.8 72.1894 69.56H85.5494C85.256 67.6667 84.5094 66.2267 83.3094 65.24C82.1094 64.2533 80.7094 63.76 79.1094 63.76ZM106.87 61H110.35V81H106.87V78.12C105.456 80.3867 103.296 81.52 100.39 81.52C98.043 81.52 96.163 80.7867 94.7497 79.32C93.3364 77.8267 92.6297 75.8133 92.6297 73.28V61H96.1097V73.08C96.1097 74.7067 96.5497 75.9733 97.4297 76.88C98.3097 77.76 99.523 78.2 101.07 78.2C102.803 78.2 104.203 77.6667 105.27 76.6C106.336 75.5067 106.87 73.84 106.87 71.6V61ZM126.528 64.36H121.208V75.2C121.208 76.1867 121.394 76.8933 121.768 77.32C122.168 77.72 122.768 77.9333 123.568 77.96C124.368 77.96 125.354 77.9333 126.528 77.88V81C123.488 81.4 121.261 81.16 119.848 80.28C118.434 79.3733 117.728 77.68 117.728 75.2V64.36H113.768V61H117.728V56.44L121.208 55.4V61H126.528V64.36ZM134.245 64.36C135.392 61.88 137.472 60.64 140.485 60.64V64.28C138.778 64.2 137.312 64.6533 136.085 65.64C134.858 66.6267 134.245 68.2133 134.245 70.4V81H130.765V61H134.245V64.36ZM159.356 61H162.836V81H159.356V77.56C157.623 80.2 155.103 81.52 151.796 81.52C148.996 81.52 146.61 80.5067 144.636 78.48C142.663 76.4267 141.676 73.9333 141.676 71C141.676 68.0667 142.663 65.5867 144.636 63.56C146.61 61.5067 148.996 60.48 151.796 60.48C155.103 60.48 157.623 61.8 159.356 64.44V61ZM152.236 78.16C154.263 78.16 155.956 77.48 157.316 76.12C158.676 74.7333 159.356 73.0267 159.356 71C159.356 68.9733 158.676 67.28 157.316 65.92C155.956 64.5333 154.263 63.84 152.236 63.84C150.236 63.84 148.556 64.5333 147.196 65.92C145.836 67.28 145.156 68.9733 145.156 71C145.156 73.0267 145.836 74.7333 147.196 76.12C148.556 77.48 150.236 78.16 152.236 78.16ZM168.109 81V51.8H171.589V81H168.109Z" fill="#8D5501"/>
</g>
<defs>
<linearGradient id="paint0_linear_2_250" x1="379" y1="2.91316e-05" x2="20.5" y2="139" gradientUnits="userSpaceOnUse">
<stop stop-color="#FBB348"/>
<stop offset="1" stop-color="#FFD69A"/>
</linearGradient>
<clipPath id="clip0_2_250">
<rect width="379" height="139" rx="10" fill="white"/>
</clipPath>
<clipPath id="clip1_2_250">
<rect width="173.118" height="151.046" fill="white" transform="translate(178 14.5383)"/>
</clipPath>
</defs>
</svg>
