<svg width="379" height="139" viewBox="0 0 379 139" fill="none" xmlns="http://www.w3.org/2000/svg">
<g clip-path="url(#clip0_2_297)">
<rect width="379" height="139" rx="10" fill="url(#paint0_linear_2_297)"/>
<g clip-path="url(#clip1_2_297)">
<path d="M210.276 88.5789C209.001 83.3445 204.631 76.887 203.308 75.3499C200.853 72.4987 185.71 84.7992 186.267 87.6153C187.007 91.3588 189.73 96.4729 193.559 98.5893C197.176 100.589 203.002 101.698 205.97 99.8123C209.609 97.5011 211.222 92.4584 210.276 88.5789Z" fill="#FFAAC3"/>
<path d="M201.879 101.045C203.515 101.045 205.01 100.743 206.115 100.041C207.879 98.9205 209.293 97.0864 210.097 94.8761C210.866 92.7604 211.023 90.5012 210.539 88.5149C209.201 83.0215 204.674 76.5227 203.513 75.1734C202.808 74.3546 201.292 74.5032 199.007 75.6152C196.503 76.8341 193.197 79.1767 190.381 81.7287C188.965 83.0118 185.703 86.1591 186.001 87.6678C186.779 91.6029 189.58 96.6992 193.428 98.826C195.806 100.14 199.052 101.045 201.879 101.045H201.879ZM210.014 88.643C210.872 92.1682 209.541 97.2245 205.825 99.584C204.799 100.236 203.405 100.518 201.873 100.518C199.156 100.518 196.004 99.6318 193.69 98.3525C189.987 96.3056 187.286 91.3752 186.532 87.5629C186.368 86.7298 188.021 84.5971 190.744 82.1295C193.526 79.6095 196.782 77.2997 199.244 76.1017C201.222 75.1386 202.593 74.9344 203.103 75.5265C204.577 77.2397 208.799 83.6573 210.014 88.6431L210.014 88.643Z" fill="black"/>
<path d="M192.792 83.7096C190.882 81.4858 188.395 77.9975 185.913 76.3931C183.566 74.875 178.181 73.0404 175.534 73.3091C173.393 73.5264 171.666 76.3079 173.818 78.4154C176.086 80.6358 181.341 81.7485 182.838 82.7951C184.072 83.6581 185.921 85.5162 186.267 87.6153" fill="#FFAAC3"/>
<path d="M186.267 87.8859C186.281 87.8859 186.296 87.8848 186.311 87.8823C186.458 87.8579 186.558 87.7188 186.534 87.5714C186.187 85.4678 184.41 83.5643 182.993 82.5735C182.404 82.1619 181.302 81.7553 180.027 81.2844C177.959 80.5212 175.386 79.5714 174.008 78.2222C172.881 77.1197 173.044 76.0097 173.242 75.4462C173.591 74.4496 174.545 73.6815 175.562 73.5783C178.076 73.3231 183.364 75.0667 185.767 76.6202C187.646 77.8358 189.531 80.1545 191.194 82.2002C191.685 82.8049 192.15 83.3762 192.587 83.8858C192.685 83.9992 192.855 84.0121 192.969 83.9148C193.082 83.8176 193.095 83.6467 192.998 83.5334C192.565 83.0294 192.103 82.461 191.614 81.8591C189.925 79.7822 188.012 77.4281 186.06 76.166C183.587 74.5669 178.122 72.7749 175.507 73.04C174.269 73.1656 173.153 74.0607 172.731 75.2674C172.323 76.4326 172.65 77.6504 173.629 78.6087C175.09 80.0387 177.723 81.0108 179.839 81.7919C181.08 82.2498 182.151 82.6452 182.683 83.0168C183.754 83.7661 185.659 85.587 186 87.6593C186.022 87.7918 186.137 87.8858 186.267 87.8858V87.8859Z" fill="black"/>
<path d="M196.631 77.67C194.323 75.3753 191.719 72.5824 188.76 70.893C185.96 69.2946 178.567 66.6185 175.471 66.8073C172.966 66.9601 171.025 69.7037 173.615 71.8887C176.343 74.1909 183.731 75.9 185.308 77.2193C186.884 78.5385 189.755 82.2659 190.526 83.3165" fill="#FFAAC3"/>
<path d="M190.526 83.5871C190.582 83.5871 190.638 83.5701 190.686 83.5347C190.807 83.4463 190.833 83.2771 190.744 83.1566C190.046 82.2046 187.106 78.3718 185.481 77.0119C184.767 76.4141 183.01 75.7729 180.975 75.0305C178.318 74.0615 175.307 72.9632 173.789 71.682C172.821 70.8651 172.457 69.9045 172.765 68.977C173.11 67.9352 174.229 67.154 175.487 67.0773C178.396 66.8983 185.733 69.4764 188.626 71.1279C191.194 72.5941 193.528 74.938 195.586 77.0061C195.875 77.2969 196.16 77.583 196.441 77.8619C196.547 77.9673 196.718 77.9667 196.823 77.8607C196.929 77.7548 196.928 77.5835 196.822 77.4782C196.542 77.2 196.258 76.9145 195.969 76.6245C193.887 74.5322 191.526 72.1606 188.894 70.6581C186.217 69.1301 178.699 66.3389 175.454 66.5374C173.981 66.6272 172.664 67.5605 172.251 68.8069C171.875 69.9418 172.308 71.1405 173.44 72.0956C175.032 73.4386 178.09 74.5545 180.789 75.539C182.694 76.2337 184.492 76.8899 185.134 77.4269C186.717 78.7519 189.618 82.5359 190.308 83.4767C190.361 83.549 190.443 83.5872 190.526 83.5872L190.526 83.5871Z" fill="black"/>
<path d="M203.308 75.3499C200.859 72.6558 194.557 66.7982 191.47 65.0359C188.549 63.3684 181.941 61.0124 178.711 61.2094C176.099 61.3688 175.05 64.3362 177.751 66.6156C180.597 69.0171 186.225 70.2591 187.869 71.6352C189.514 73.0114 194.305 78.3962 195.108 79.4921" fill="#FFAAC3"/>
<path d="M195.108 79.7626C195.164 79.7626 195.22 79.7456 195.268 79.7102C195.389 79.6218 195.415 79.4526 195.326 79.3321C194.534 78.2512 189.754 72.8598 188.043 71.4277C187.302 70.8077 185.853 70.2387 184.176 69.5798C181.99 68.7216 179.514 67.7489 177.925 66.4087C176.701 65.3757 176.188 64.1033 176.552 63.0051C176.847 62.1148 177.66 61.5444 178.728 61.4794C181.852 61.2874 188.43 63.6116 191.336 65.2708C194.441 67.0431 200.811 73.0053 203.107 75.5318C203.208 75.6424 203.379 75.6507 203.49 75.5501C203.6 75.4497 203.608 75.2785 203.508 75.168C201.13 72.5515 194.805 66.628 191.604 64.801C188.675 63.1288 182.028 60.7352 178.695 60.9395C177.418 61.0174 176.399 61.7437 176.038 62.835C175.602 64.1509 176.177 65.6415 177.576 66.8222C179.233 68.2198 181.753 69.21 183.978 70.0835C185.611 70.7251 187.022 71.2792 187.695 71.8426C189.337 73.2168 194.126 78.6103 194.89 79.652C194.943 79.7243 195.025 79.7625 195.108 79.7625L195.108 79.7626Z" fill="black"/>
<path d="M201.132 80.5622C196.351 79.2492 194.902 75.2654 189.932 73.2841C187.487 72.3092 185.296 73.7967 185.742 77.2513C186.266 81.3134 191.818 84.6044 192.077 87.7345C192.27 90.0641 192.328 93.8972 195.294 96.2578" fill="#FFAAC3"/>
<path d="M195.294 96.5283C195.373 96.5283 195.452 96.4934 195.506 96.4263C195.598 96.3094 195.579 96.1392 195.462 96.0462C192.814 93.9386 192.559 90.5274 192.39 88.27C192.375 88.0761 192.361 87.8898 192.347 87.7121C192.216 86.1372 190.866 84.5756 189.435 82.9223C187.882 81.1259 186.275 79.2683 186.01 77.2167C185.806 75.637 186.161 74.404 187.011 73.7452C187.733 73.185 188.761 73.1085 189.832 73.5353C192.157 74.4625 193.705 75.8436 195.203 77.1795C196.897 78.6913 198.498 80.1193 201.06 80.823C201.205 80.863 201.353 80.7779 201.393 80.6338C201.432 80.4897 201.347 80.3409 201.203 80.3013C198.763 79.6311 197.209 78.2441 195.563 76.7758C194.031 75.4088 192.446 73.9953 190.032 73.0327C188.779 72.533 187.557 72.6369 186.679 73.3177C185.672 74.099 185.244 75.5082 185.474 77.2858C185.759 79.499 187.42 81.4192 189.026 83.2762C190.397 84.8609 191.692 86.3576 191.808 87.7567C191.822 87.9331 191.836 88.118 191.851 88.3104C192.027 90.6614 192.292 94.2146 195.126 96.4695C195.175 96.5091 195.235 96.5283 195.294 96.5283H195.294Z" fill="black"/>
<path d="M270.351 89.1757C257.401 89.5042 245.335 122.454 239.653 124.646C232.645 118.016 228.352 94.6783 217.37 87.7054C211.816 84.1782 204.071 88.6838 201.492 96.1995C194.825 96.7807 194.087 103.094 195.111 107.044C197.316 115.551 211.083 147.305 229.719 155.163L247.431 155.127C261.604 149.614 271.361 132.833 274.09 124.216" fill="#FBB348"/>
<path d="M229.719 155.433H229.72L247.431 155.398C247.465 155.398 247.498 155.391 247.529 155.379C255.474 152.288 261.56 145.853 265.267 140.999C270.043 134.744 273.089 128.27 274.348 124.298C274.393 124.155 274.314 124.003 274.172 123.958C274.029 123.913 273.877 123.992 273.832 124.134C270.981 133.134 261.283 149.42 247.379 154.857L229.774 154.892C219.828 150.673 211.621 139.687 206.485 131.207C200.332 121.048 196.403 110.953 195.373 106.977C194.786 104.715 194.745 101.472 196.386 99.1493C197.501 97.5703 199.227 96.6684 201.516 96.469C201.622 96.4597 201.714 96.3885 201.748 96.2874C203.205 92.0404 206.419 88.5928 210.135 87.2898C212.659 86.4046 215.177 86.6334 217.225 87.9339C223.534 91.9396 227.676 101.559 231.331 110.047C233.984 116.207 236.489 122.025 239.467 124.842C239.543 124.914 239.653 124.936 239.75 124.898C241.937 124.055 244.843 119.155 248.521 112.953C251.571 107.811 255.027 101.983 258.749 97.3969C263.018 92.1369 266.815 89.5362 270.358 89.4463C270.507 89.4425 270.625 89.3184 270.621 89.169C270.617 89.0196 270.492 88.9012 270.344 88.9054C262.029 89.1163 254.281 102.18 248.056 112.677C244.663 118.398 241.72 123.359 239.711 124.326C236.869 121.538 234.419 115.85 231.828 109.833C228.142 101.274 223.965 91.5724 217.515 87.4772C215.324 86.0859 212.64 85.8383 209.956 86.7793C206.136 88.1189 202.83 91.6225 201.294 95.9467C198.926 96.1912 197.126 97.1631 195.944 98.8373C194.196 101.311 194.232 104.734 194.849 107.112C195.887 111.119 199.839 121.279 206.022 131.487C211.209 140.051 219.512 151.152 229.614 155.412C229.647 155.426 229.683 155.433 229.719 155.433H229.719Z" fill="black"/>
<path d="M237.542 125.391C238.261 125.391 239.014 125.245 239.768 124.89C239.904 124.827 239.962 124.666 239.898 124.531C239.834 124.395 239.673 124.337 239.538 124.401C237.068 125.562 234.599 124.241 233.622 123.135C233.523 123.024 233.352 123.013 233.24 123.112C233.129 123.211 233.118 123.382 233.217 123.494C233.999 124.38 235.65 125.391 237.542 125.391V125.391Z" fill="black"/>
<path d="M200.837 101.051C200.841 101.051 200.845 101.051 200.85 101.05C200.999 101.044 201.114 100.917 201.108 100.768C201.041 99.3089 201.123 98.1623 201.749 96.285C201.797 96.1432 201.72 95.99 201.578 95.9428C201.436 95.8955 201.283 95.9722 201.236 96.1139C200.587 98.0615 200.499 99.3041 200.567 100.792C200.574 100.937 200.693 101.051 200.837 101.051Z" fill="black"/>
<path d="M266.208 110.354C264.1 119.616 253.958 131.179 260.091 145.432C264.717 156.181 282.041 155.301 299.587 155.163C317.509 155.022 329.873 143.983 322.346 120.482C315.394 98.7765 301.03 85.7001 301.03 85.7001C298.901 77.9737 292.371 76.7319 283.497 78.4329C275.049 80.0524 268.762 82.7994 269.314 90.9158" fill="#FBB348"/>
<path d="M290.124 155.508C292.186 155.508 294.283 155.486 296.396 155.464C297.458 155.453 298.523 155.442 299.589 155.433C304.293 155.396 308.509 154.623 312.12 153.136C315.891 151.583 318.892 149.292 321.038 146.326C323.204 143.333 324.463 139.692 324.781 135.503C325.119 131.047 324.386 125.965 322.604 120.4C319.001 109.152 313.379 100.265 309.298 94.7899C305.179 89.2655 301.753 86.0047 301.27 85.5539C300.218 81.8052 298.129 79.4239 294.883 78.2764C292.044 77.2723 288.303 77.2366 283.446 78.1675C275.617 79.6683 268.454 82.2538 269.044 90.9344C269.054 91.0835 269.182 91.1956 269.332 91.186C269.481 91.1758 269.594 91.0469 269.584 90.8978C269.333 87.2098 270.513 84.4484 273.192 82.4553C275.41 80.8052 278.604 79.6466 283.548 78.6988C288.308 77.7866 291.956 77.8151 294.703 78.7864C297.791 79.8783 299.775 82.1633 300.769 85.7721C300.783 85.8214 300.81 85.8658 300.848 85.9003C300.884 85.9328 304.478 89.2286 308.873 95.1254C312.927 100.565 318.511 109.394 322.088 120.565C325.486 131.171 324.971 139.97 320.6 146.009C316.508 151.663 309.045 154.818 299.585 154.893C298.519 154.901 297.453 154.912 296.391 154.923C280.048 155.094 264.613 155.255 260.34 145.325C256.01 135.263 259.85 126.621 263.239 118.997C264.588 115.96 265.862 113.093 266.472 110.415C266.505 110.269 266.414 110.124 266.268 110.091C266.122 110.058 265.977 110.149 265.944 110.295C265.347 112.921 264.082 115.766 262.744 118.777C261.097 122.484 259.23 126.685 258.372 131.134C257.388 136.241 257.869 140.953 259.843 145.539C263.694 154.488 276.061 155.508 290.124 155.508L290.124 155.508Z" fill="black"/>
<path d="M274.09 75.1274L276.617 85.7484C280.273 88.2794 288.447 87.3649 291.463 83.0683L288.632 68.6804" fill="#FFAAC3"/>
<path d="M282.016 87.4092C285.677 87.4092 289.723 86.0177 291.684 83.2236C291.727 83.1633 291.743 83.0883 291.729 83.016L288.897 68.6282C288.869 68.4816 288.726 68.3862 288.58 68.415C288.433 68.4439 288.338 68.5861 288.366 68.7327L291.175 83.006C289.809 84.881 287.289 86.2251 284.238 86.7014C281.382 87.1473 278.567 86.7191 276.856 85.5835L274.353 75.0648C274.319 74.9195 274.174 74.8297 274.027 74.8642C273.882 74.8988 273.792 75.0446 273.827 75.19L276.354 85.811C276.369 85.8759 276.408 85.9328 276.463 85.9708C277.847 86.929 279.865 87.4093 282.016 87.4093L282.016 87.4092Z" fill="black"/>
<path d="M255.124 32.6423C241.893 45.517 248.651 57.0385 276.228 60.679C282.855 61.5538 296.548 65.8781 302.921 56.8242C307.185 50.7667 304.715 38.3807 294.631 36.1103C293.321 17.791 265.115 22.9206 255.124 32.6423Z" fill="#6F5490"/>
<path d="M290.012 62.7448C295.011 62.7448 299.965 61.4944 303.142 56.9799C305.434 53.7249 305.833 48.5812 304.136 44.1806C302.471 39.862 299.19 36.9253 294.885 35.8918C294.442 30.5448 291.626 26.738 286.734 24.875C277.013 21.1733 261.658 25.9066 254.935 32.4485C249.408 37.8268 247.282 43.0684 248.787 47.6066C249.858 50.8365 252.703 53.6178 257.243 55.8731C261.924 58.1979 268.299 59.9052 276.193 60.9473C277.196 61.0797 278.388 61.2963 279.649 61.5256C282.676 62.0758 286.356 62.7448 290.012 62.7448ZM278.863 24.114C281.718 24.114 284.324 24.5362 286.541 25.3806C291.283 27.1863 293.987 30.9033 294.361 36.1296C294.369 36.2486 294.455 36.348 294.571 36.3742C298.79 37.3241 302.008 40.1656 303.631 44.3752C305.266 48.6145 304.891 53.5549 302.7 56.6685C297.397 64.202 286.775 62.271 279.746 60.9933C278.478 60.7628 277.28 60.545 276.264 60.4109C268.429 59.3766 262.111 57.6869 257.484 55.3885C253.078 53.1998 250.325 50.5242 249.3 47.4363C247.865 43.1085 249.944 38.06 255.312 32.8362C258.602 29.6355 264.076 26.8235 269.956 25.3142C273.073 24.5139 276.086 24.114 278.863 24.114Z" fill="black"/>
<path d="M264.382 44.5349C261.013 43.3936 257.654 53.5016 258.178 59.9349C258.178 59.9349 253.723 58.2592 253.049 60.3577C252.377 62.4574 256.742 64.3853 258.686 65.1171C258.686 65.1171 260.886 77.8486 272.844 78.6923C284.802 79.536 290.063 69.4232 290.348 69.1098C290.348 69.1098 300.458 69.9649 303.505 61.6279C306.331 53.8952 302.224 47.635 295.56 48.7899C287.234 50.233 289.291 58.5011 285.175 58.1503C283.435 58.0021 279.672 58.0363 273.503 53.1412C267.674 48.5165 267.274 45.5148 264.382 44.535V44.5349Z" fill="#FFAAC3"/>
<path d="M274.262 79.0132C278.41 79.0132 282.168 77.7061 285.451 75.1177C288.323 72.8532 289.901 70.3249 290.42 69.494C290.442 69.4582 290.465 69.4219 290.485 69.3898C291.093 69.4228 293.318 69.4787 295.858 68.7553C299.75 67.6468 302.482 65.2143 303.759 61.7208C305.282 57.5525 304.898 53.516 302.732 50.923C301.014 48.8666 298.45 48.0145 295.514 48.5233C290.601 49.3748 289.163 52.6124 288.113 54.9763C287.33 56.74 286.764 58.0145 285.198 57.8806C285.084 57.871 284.961 57.862 284.83 57.8523C282.924 57.7133 279.375 57.4546 273.671 52.9291C270.798 50.6497 269.287 48.8077 268.073 47.3275C266.868 45.8582 265.997 44.7965 264.469 44.2787C263.777 44.0442 263.069 44.2043 262.364 44.7541C259.778 46.7728 257.575 54.1197 257.881 59.547C257.006 59.2663 254.892 58.698 253.658 59.2945C253.225 59.5038 252.934 59.8336 252.792 60.2749C252.058 62.5665 256.39 64.5271 258.449 65.3162C258.586 65.9994 259.231 68.8043 261.051 71.7311C262.95 74.7848 266.534 78.5182 272.825 78.9621C273.309 78.9962 273.788 79.0133 274.262 79.0133L274.262 79.0132ZM290.348 68.8392C290.272 68.8392 290.199 68.8711 290.148 68.9279C290.111 68.9683 290.074 69.0272 289.961 69.2074C287.634 72.9353 282.319 79.0884 272.863 78.4223C268.001 78.0793 264.185 75.7371 261.52 71.4606C259.522 68.2539 258.958 65.1022 258.953 65.0708C258.936 64.9764 258.871 64.8975 258.781 64.8637C255.808 63.7445 252.809 61.9947 253.306 60.44C253.402 60.1414 253.594 59.9261 253.892 59.7817C255.236 59.1324 258.054 60.1774 258.083 60.188C258.17 60.2205 258.267 60.2064 258.341 60.1507C258.415 60.0949 258.455 60.0052 258.448 59.9128C258.022 54.6967 260.207 47.1241 262.697 45.1804C263.249 44.7496 263.787 44.6189 264.295 44.7909L264.382 44.5347L264.295 44.7909C265.677 45.2591 266.464 46.2184 267.655 47.6705C268.82 49.0914 270.416 51.0373 273.334 53.3528C279.169 57.982 282.966 58.2588 284.791 58.3918C284.92 58.4012 285.04 58.41 285.152 58.4195C287.101 58.5855 287.8 57.0148 288.608 55.1958C289.664 52.8179 290.978 49.8583 295.606 49.0563C298.344 48.5818 300.728 49.3677 302.317 51.2697C304.358 53.7129 304.707 57.5503 303.251 61.535C302.02 64.9015 299.489 67.1542 295.726 68.2304C292.896 69.0397 290.396 68.8423 290.371 68.8401C290.363 68.8395 290.355 68.8392 290.348 68.8392Z" fill="black"/>
<path d="M291.05 63.8356C291.092 63.8356 291.134 63.826 291.174 63.8055C291.306 63.7372 291.359 63.5744 291.291 63.4418C291.284 63.4276 290.63 62.1097 290.964 60.0949C291.274 58.2221 292.526 55.3449 296.724 52.2732C296.845 52.185 296.871 52.0158 296.783 51.8951C296.695 51.7745 296.526 51.7483 296.405 51.8365C292.037 55.0321 290.741 58.0655 290.423 60.0475C290.074 62.2276 290.779 63.6303 290.809 63.6889C290.857 63.7821 290.952 63.8355 291.05 63.8355L291.05 63.8356Z" fill="#161616"/>
<path d="M295.438 59.2368C295.53 59.2368 295.619 59.1905 295.67 59.1068C295.747 58.9791 295.707 58.8127 295.579 58.7351C293.329 57.368 291.267 57.9958 291.18 58.0232C291.038 58.0682 290.959 58.2201 291.004 58.3626C291.049 58.5049 291.2 58.5838 291.343 58.5392C291.369 58.531 293.27 57.9653 295.298 59.1975C295.342 59.2241 295.391 59.2368 295.438 59.2368H295.438Z" fill="#161616"/>
<path d="M261.971 69.0883L261.972 69.0873C262.007 69.0627 265.488 66.6591 268.823 69.5623C268.936 69.6604 268.948 69.8313 268.85 69.9439C268.752 70.0569 268.581 70.0684 268.468 69.9704C265.458 67.3507 262.412 69.439 262.284 69.5291C262.162 69.615 261.994 69.5859 261.907 69.4639C261.822 69.3424 261.85 69.1747 261.971 69.0882L261.971 69.0883Z" fill="#161616"/>
<path d="M262.515 57.1525C262.451 56.6256 262.827 56.1469 263.354 56.0831C263.881 56.0191 264.361 56.3939 264.425 56.9209C264.489 57.4492 264.113 57.9279 263.586 57.9918C263.059 58.0558 262.579 57.681 262.515 57.1526V57.1525Z" fill="#161616"/>
<path d="M270.524 66.9166C270.165 63.9568 272.273 61.2659 275.235 60.9068C278.194 60.5478 280.885 62.6566 281.244 65.6164C281.603 68.5775 279.495 71.2684 276.535 71.6274C273.574 71.9866 270.883 69.8779 270.524 66.9167L270.524 66.9166Z" fill="#FF6996"/>
<path d="M257.969 45.2012C258.002 45.2012 258.034 45.1955 258.066 45.1831C259.494 44.6348 261.694 43.9978 264.303 44.7936C264.446 44.8373 264.597 44.7567 264.64 44.6138C264.684 44.4709 264.603 44.3197 264.461 44.2761C261.693 43.4316 259.375 44.101 257.872 44.6779C257.733 44.7315 257.663 44.888 257.717 45.0274C257.758 45.135 257.861 45.201 257.969 45.201V45.2012Z" fill="black"/>
<path d="M234.298 149.764C237.317 146.903 248.871 143.22 255.666 141.598C261.943 140.099 275.682 138.256 277.615 139.722C279.548 141.188 282.418 144.349 282.825 147.036C283.208 149.567 281.258 153.038 276.997 155.127H236.328C233.989 155.127 232.316 151.642 234.298 149.764H234.298Z" fill="#FFAAC3"/>
<path d="M236.328 155.397H276.998C277.039 155.397 277.08 155.388 277.117 155.37C281.75 153.099 283.462 149.437 283.092 146.996C282.661 144.149 279.604 140.891 277.779 139.506C276.609 138.619 271.947 138.893 268.242 139.279C263.965 139.724 258.886 140.551 255.603 141.335C248.496 143.032 237.129 146.708 234.112 149.568C233.154 150.475 232.889 151.864 233.418 153.192C233.944 154.511 235.113 155.397 236.328 155.397H236.328ZM276.935 154.856H236.328C235.332 154.856 234.365 154.107 233.92 152.992C233.468 151.857 233.679 150.724 234.484 149.961C237.429 147.17 248.68 143.544 255.729 141.861C262.669 140.203 275.764 138.657 277.452 139.937C279.21 141.271 282.15 144.388 282.557 147.077C282.897 149.32 281.281 152.704 276.935 154.856Z" fill="black"/>
<path d="M297.87 84.2171C302.148 83.8713 309.817 84.1411 316.601 90.5946C326.718 100.22 327.788 107.447 339.514 117.542C349.884 126.47 362.365 143.929 353.761 155.127H274.874C272.403 153.772 272.252 148.143 275.397 143.965C273.51 137.965 275.114 133.192 282.29 131.762C290.318 130.162 304.406 132.853 313.303 133.419" fill="#FBB348"/>
<path d="M274.874 155.397H353.761C353.845 155.397 353.925 155.358 353.976 155.292C362.68 143.962 350.202 126.386 339.691 117.337C333.385 111.908 330.118 107.234 326.96 102.713C324.257 98.8452 321.461 94.8452 316.787 90.3984C313.771 87.529 310.264 85.576 306.362 84.5937C303.7 83.9234 300.835 83.7058 297.848 83.9474C297.699 83.9594 297.588 84.0899 297.6 84.2388C297.612 84.3876 297.742 84.4991 297.892 84.4865C305.167 83.8987 311.399 86.0194 316.414 90.7903C321.049 95.1995 323.828 99.1769 326.516 103.023C329.694 107.571 332.98 112.274 339.338 117.747C345.258 122.844 350.556 129.518 353.509 135.601C356.129 140.996 358.265 148.701 353.627 154.856H274.945C274.234 154.436 273.707 153.574 273.459 152.42C272.907 149.854 273.752 146.599 275.613 144.127C275.665 144.057 275.681 143.967 275.655 143.883C274.62 140.594 274.703 137.9 275.901 135.878C277.045 133.946 279.212 132.651 282.343 132.027C287.933 130.913 296.584 131.907 304.216 132.783C307.511 133.162 310.623 133.519 313.286 133.689C313.434 133.699 313.563 133.585 313.573 133.436C313.582 133.287 313.469 133.158 313.32 133.149C310.671 132.98 307.566 132.624 304.278 132.246C296.606 131.365 287.91 130.366 282.237 131.496C278.949 132.152 276.661 133.533 275.436 135.602C274.172 137.735 274.059 140.531 275.098 143.914C273.205 146.492 272.355 149.86 272.93 152.534C273.218 153.876 273.863 154.881 274.744 155.364C274.783 155.386 274.828 155.397 274.874 155.397Z" fill="black"/>
<path d="M339.514 134.363C339.597 134.363 339.679 134.325 339.732 134.253C339.82 134.133 339.795 133.964 339.675 133.875C334.987 130.397 327.424 131.466 320.752 132.408C317.991 132.798 315.387 133.165 313.305 133.148C313.152 133.144 313.033 133.267 313.032 133.416C313.031 133.566 313.151 133.688 313.3 133.689C315.416 133.706 318.046 133.337 320.828 132.944C327.397 132.016 334.843 130.964 339.353 134.31C339.402 134.346 339.458 134.363 339.514 134.363Z" fill="black"/>
</g>
<path d="M52.04 81.52C49.4267 81.52 47.1867 80.9067 45.32 79.68C43.48 78.4533 42.1867 76.7733 41.44 74.64L44.64 72.8C45.7333 76.1867 48.2267 77.88 52.12 77.88C54.04 77.88 55.5067 77.4933 56.52 76.72C57.5333 75.92 58.04 74.8667 58.04 73.56C58.04 72.2267 57.5333 71.2267 56.52 70.56C55.5067 69.8933 53.8133 69.1867 51.44 68.44C50.2667 68.0667 49.3733 67.7733 48.76 67.56C48.1467 67.32 47.3733 66.9733 46.44 66.52C45.5333 66.04 44.8533 65.56 44.4 65.08C43.9467 64.5733 43.5333 63.92 43.16 63.12C42.8133 62.32 42.64 61.4133 42.64 60.4C42.64 57.9733 43.4933 56.0533 45.2 54.64C46.9067 53.2 48.9867 52.48 51.44 52.48C53.6533 52.48 55.5733 53.04 57.2 54.16C58.8533 55.28 60.0933 56.76 60.92 58.6L57.8 60.4C56.6 57.52 54.48 56.08 51.44 56.08C49.92 56.08 48.6933 56.4533 47.76 57.2C46.8267 57.9467 46.36 58.96 46.36 60.24C46.36 61.4667 46.8 62.4 47.68 63.04C48.56 63.68 50.08 64.3467 52.24 65.04C53.0133 65.28 53.56 65.4533 53.88 65.56C54.2 65.6667 54.6933 65.8533 55.36 66.12C56.0533 66.3867 56.56 66.6 56.88 66.76C57.2 66.92 57.6267 67.1467 58.16 67.44C58.72 67.7333 59.1333 68.0133 59.4 68.28C59.6667 68.5467 59.9733 68.88 60.32 69.28C60.6933 69.6533 60.96 70.04 61.12 70.44C61.28 70.84 61.4133 71.3067 61.52 71.84C61.6533 72.3467 61.72 72.8933 61.72 73.48C61.72 75.9333 60.8267 77.8933 59.04 79.36C57.2533 80.8 54.92 81.52 52.04 81.52ZM82.7938 61H86.2738V81H82.7938V77.56C81.0604 80.2 78.5404 81.52 75.2338 81.52C72.4338 81.52 70.0471 80.5067 68.0738 78.48C66.1004 76.4267 65.1138 73.9333 65.1138 71C65.1138 68.0667 66.1004 65.5867 68.0738 63.56C70.0471 61.5067 72.4338 60.48 75.2338 60.48C78.5404 60.48 81.0604 61.8 82.7938 64.44V61ZM75.6738 78.16C77.7004 78.16 79.3938 77.48 80.7538 76.12C82.1138 74.7333 82.7938 73.0267 82.7938 71C82.7938 68.9733 82.1138 67.28 80.7538 65.92C79.3938 64.5333 77.7004 63.84 75.6738 63.84C73.6738 63.84 71.9938 64.5333 70.6338 65.92C69.2738 67.28 68.5938 68.9733 68.5938 71C68.5938 73.0267 69.2738 74.7333 70.6338 76.12C71.9938 77.48 73.6738 78.16 75.6738 78.16ZM108.106 53H111.586V81H108.106V77.56C106.373 80.2 103.853 81.52 100.546 81.52C97.7463 81.52 95.3596 80.5067 93.3863 78.48C91.4129 76.4267 90.4263 73.9333 90.4263 71C90.4263 68.0667 91.4129 65.5867 93.3863 63.56C95.3596 61.5067 97.7463 60.48 100.546 60.48C103.853 60.48 106.373 61.8 108.106 64.44V53ZM100.986 78.16C103.013 78.16 104.706 77.48 106.066 76.12C107.426 74.7333 108.106 73.0267 108.106 71C108.106 68.9733 107.426 67.28 106.066 65.92C104.706 64.5333 103.013 63.84 100.986 63.84C98.9863 63.84 97.3063 64.5333 95.9463 65.92C94.5863 67.28 93.9062 68.9733 93.9062 71C93.9062 73.0267 94.5863 74.7333 95.9463 76.12C97.3063 77.48 98.9863 78.16 100.986 78.16Z" fill="#8C003B"/>
</g>
<defs>
<linearGradient id="paint0_linear_2_297" x1="379" y1="2.91316e-05" x2="20.5" y2="139" gradientUnits="userSpaceOnUse">
<stop stop-color="#FB5D5D"/>
<stop offset="1" stop-color="#FFADAD"/>
</linearGradient>
<clipPath id="clip0_2_297">
<rect width="379" height="139" rx="10" fill="white"/>
</clipPath>
<clipPath id="clip1_2_297">
<rect width="184.787" height="131.927" fill="white" transform="matrix(-1 0 0 1 356.905 23.5812)"/>
</clipPath>
</defs>
</svg>
